<svg id="SvgjsSvg1027" width="288" height="288" xmlns="http://www.w3.org/2000/svg" version="1.1" xmlns:xlink="http://www.w3.org/1999/xlink" xmlns:svgjs="http://svgjs.com/svgjs"><circle id="SvgjsCircle1049" r="144" cx="144" cy="144" transform="matrix(0.7916,0,0,0.7916,30.009600000000006,30.009600000000006)" fill="#417adc"></circle><defs id="SvgjsDefs1028"></defs><g id="SvgjsG1029" transform="matrix(0.66,0,0,0.66,48.965234801769256,48.96075744628905)"><svg xmlns="http://www.w3.org/2000/svg" enable-background="new 0 0 64 64" viewBox="0 0 64 64" width="288" height="288"><path fill="#6b615b" d="M60.74,36.42c-1.08-1.45-2.48-3.02-2.43-4.91c0.06-1.97,0.34-2.71-0.04-6.61c-0.31-3.3-0.61-4.98-2.43-7.07c-2.3-2.66-4.27-3.79-9.44-3.52c-5.18,0.26-7.18,4.93-7.84,6.71c-0.75,2.02-1.56,4.8-1.09,9.22c0.35,3.39-2.31,6.02-3.63,7.57c-0.79,0.91,0.04,2.44,0.83,3.56l26.79,0.12C62.88,39.83,61.59,37.55,60.74,36.42z" class="svgShape colord82b5d-0 selectable"></path><path fill="#a0e9cc" d="M60.9,41.01c-1.92-1.51-4.6-2.49-5.59-2.84l-14.59,0.01c-1.01,0.34-3.67,1.34-5.59,2.83c-2.41,1.88-3.44,4.39-2.99,10.62h15.87H63.9C64.35,45.39,63.31,42.89,60.9,41.01z" class="svgShape color7ca3c2-1 selectable"></path><path fill="#f4d398" d="M53.08,43.31l-4.45,5.1l-5.5-6.72l-0.2-4.93c0.2-1.29,0.78-2.55,0.59-3.81l9.07-0.14c-0.21,1.26,0.27,2.65,0.5,3.95L53.08,43.31z" class="svgShape colorf4d398-2 selectable"></path><path fill="#e9c992" d="M52.6,32.82c-0.01,0.11-0.03,0.22-0.04,0.33c-0.01,0.15-0.01,0.3-0.01,0.46c-0.57,0.7-1.27,1.39-2.12,1.97c-0.77,0.54-1.59,0.82-2.42,0.82c-0.84,0-1.65-0.27-2.43-0.82c-0.8-0.57-1.48-1.22-2.04-1.88c0.02-0.24,0.01-0.49-0.02-0.73h0.01L52.6,32.82z" class="svgShape colore9c992-3 selectable"></path><path fill="#ffffff" d="M51.74,39.89l-1.62,7.72l-2.1,4.02l-1.81-3.21l-1.91-8.49c1.55,1.8,3.72,4.25,3.72,4.25S50.19,41.7,51.74,39.89z" class="svgShape colorffffff-4 selectable"></path><polygon fill="#7ac0a6" points="43.04 35.58 48.01 51.63 40.63 41.15 42.18 40.3 40.71 38.18" class="svgShape color6c99b7-5 selectable"></polygon><polygon fill="#7ac0a6" points="52.98 35.58 48.01 51.63 55.4 41.15 53.85 40.3 55.3 38.16" class="svgShape color6c99b7-6 selectable"></polygon><path fill="#fbdea2" d="M55.67,28.19c-0.26,0.72-0.6,1.7-0.6,1.7c-0.21,0.38-0.79,0.55-1.2,0.41c-0.13,0.54-0.54,1.49-1.27,2.51c-0.59,0.82-1.39,1.68-2.42,2.4c-1.39,0.98-2.94,0.98-4.34,0c-0.97-0.68-1.73-1.48-2.31-2.26c-0.79-1.07-1.23-2.09-1.37-2.65c-0.4,0.14-1.02-0.18-1.23-0.57c0,0-0.32-0.83-0.59-1.55c-0.59-1.65,0.38-2.17,0.98-2.08l0.01-0.01c0,0-0.09-0.79,0.01-1.75c0,0,0.14-1.22,0.15-1.24c1.12-0.31,2.16-0.24,3.2-2.07c0,0,3.3,4.84,9.64,2.89c0.19,0.73,0.24,2.19,0.24,2.19C55.29,25.98,56.26,26.55,55.67,28.19z" class="svgShape colorfbdea2-7 selectable"></path><path fill="#7a8d8d" d="M31.44,41.13c-2.63-1.78-6.53-2.81-6.53-2.81h-15c0,0-3.9,1.03-6.53,2.81c-2.63,1.78-3.76,4.61-3.26,10.49H34.7C35.19,45.74,34.06,42.91,31.44,41.13z" class="svgShape color95cebe-8 selectable"></path><path fill="#fbdea2" d="M22.63,32.16c-0.24,1.59-0.24,2.51,0,4.09c-3.8,7.5-7.28,7.5-10.44,0c0.21-1.59,0.21-2.51,0-4.09H22.63z" class="svgShape colorfbdea2-9 selectable"></path><path fill="#ffffff" d="M22.63,35.84c-0.22,4.51-2.3,10.01-5.22,15.79c-2.98-5.56-4.88-10.85-5.22-15.79c0.67,0.91,1.68,1.61,2.64,2.12c1.61,0.85,3.56,0.85,5.17,0C20.95,37.45,21.96,36.75,22.63,35.84" class="svgShape colorffffff-10 selectable"></path><path fill="#f4d398" d="M22.63,32.16c-0.11,0.75-0.17,1.34-0.18,1.93c-0.63,0.71-1.44,1.34-2.44,1.74c-0.83,0.33-1.71,0.48-2.61,0.48c-0.89,0-1.76-0.16-2.6-0.48c-1.02-0.4-1.84-1.05-2.46-1.77c-0.01-0.58-0.06-1.17-0.16-1.9H22.63z" class="svgShape colorf4d398-11 selectable"></path><path fill="#ffe5ab" d="M10.18,26.38c-0.65-0.1-1.7,0.45-1.06,2.15c0.28,0.73,0.64,1.59,0.64,1.59c0.22,0.4,0.88,0.72,1.32,0.58c0.25,1.01,1.33,3.68,3.9,4.68c1.57,0.61,3.29,0.61,4.86,0c2.58-1,3.65-3.67,3.9-4.68c0.44,0.14,1.09-0.02,1.31-0.42c0,0,0.37-1.02,0.65-1.74c0.64-1.71-0.41-2.28-1.16-2.14C24.71,11.25,9.62,12.7,10.18,26.38z" class="svgShape colorffe5ab-12 selectable"></path><path fill="#365470" d="M24.12,27.08c0.24-6.23-2.35-7.72-2.35-7.72c-1.79,0.85-4.27,0.96-6.56-0.04c-1.26-0.55-2.13-0.41-2.54-0.27c-0.17,0.06-0.27,0.12-0.27,0.12l-1.68-3.05c0.04-0.12,0.09-0.25,0.13-0.36c2.5-6.1,15.13-3.28,15.35,3.03C26.37,23.97,24.12,27.08,24.12,27.08z" class="svgShape color365470-13 selectable"></path><path fill="#2d4a63" d="M12.4,19.17c0,0-0.01,0.18-0.06,0.5v0.01c-0.1,0.54-0.37,1.45-1.05,2.48c-1.06,1.59-0.97,4.54-0.97,4.54c-4.12-9.18-0.99-10.4,0.07-10.56c0.2-0.03,0.33-0.02,0.33-0.02L12.4,19.17z" class="svgShape color2d4a63-14 selectable"></path><polygon fill="#5b6161" points="12.18 35.84 17.41 51.63 9.91 41.5 11.48 40.63 9.91 38.32" class="svgShape color89c6b4-15 selectable"></polygon><polygon fill="#5b6161" points="22.63 35.84 17.41 51.63 24.9 41.5 23.33 40.63 24.9 38.32" class="svgShape color89c6b4-16 selectable"></polygon></svg></g></svg>