<svg id="SvgjsSvg1001" width="288" height="288" xmlns="http://www.w3.org/2000/svg" version="1.1" xmlns:xlink="http://www.w3.org/1999/xlink" xmlns:svgjs="http://svgjs.com/svgjs"><defs id="SvgjsDefs1002"></defs><g id="SvgjsG1008"><svg xmlns="http://www.w3.org/2000/svg" enable-background="new 0 0 64 64" viewBox="0 0 64 64" width="288" height="288"><polygon fill="#3a556a" points="43.19 19.47 42.01 19.47 42.01 11.31 45.96 7.36 45.96 3.25 47.15 3.25 47.15 7.85 43.19 11.8" class="svgShape color3a556a-0 selectable"></polygon><polygon fill="#3a556a" points="29.74 19.47 28.55 19.47 28.55 11.8 24.59 7.85 24.59 3.25 25.78 3.25 25.78 7.36 29.74 11.31" class="svgShape color3a556a-1 selectable"></polygon><polygon fill="#3a556a" points="23.8 19.47 22.61 19.47 22.61 11.8 18.66 7.85 18.66 3.25 19.84 3.25 19.84 7.36 23.8 11.31" class="svgShape color3a556a-2 selectable"></polygon><rect width="1.19" height="16.22" x="35.28" y="3.25" fill="#3a556a" class="svgShape color3a556a-3 selectable"></rect><polygon fill="#3a556a" points="47.15 60.93 45.96 60.93 45.96 56.82 42.01 52.86 42.01 44.7 43.19 44.7 43.19 52.37 47.15 56.33" class="svgShape color3a556a-4 selectable"></polygon><polygon fill="#3a556a" points="25.78 60.93 24.59 60.93 24.59 56.33 28.55 52.37 28.55 44.7 29.74 44.7 29.74 52.86 25.78 56.82" class="svgShape color3a556a-5 selectable"></polygon><polygon fill="#3a556a" points="19.84 60.93 18.66 60.93 18.66 56.33 22.61 52.37 22.61 44.7 23.8 44.7 23.8 52.86 19.84 56.82" class="svgShape color3a556a-6 selectable"></polygon><rect width="1.19" height="16.22" x="35.28" y="44.7" fill="#3a556a" class="svgShape color3a556a-7 selectable"></rect><polygon fill="#3a556a" points="53.92 23.06 45.77 23.06 45.77 21.87 53.44 21.87 57.39 17.94 61.99 17.94 61.99 19.13 57.88 19.13" class="svgShape color3a556a-8 selectable"></polygon><polygon fill="#3a556a" points="61.99 30.78 57.39 30.78 53.44 26.85 45.77 26.85 45.77 25.67 53.92 25.67 57.88 29.6 61.99 29.6" class="svgShape color3a556a-9 selectable"></polygon><polygon fill="#3a556a" points="61.99 46.23 57.39 46.23 53.44 42.31 45.77 42.31 45.77 41.12 53.92 41.12 57.88 45.05 61.99 45.05" class="svgShape color3a556a-10 selectable"></polygon><rect width="16.22" height="1.19" x="45.77" y="35.36" fill="#3a556a" class="svgShape color3a556a-11 selectable"></rect><polygon fill="#3a556a" points="20.04 23.06 11.88 23.06 7.93 19.13 3.82 19.13 3.82 17.94 8.42 17.94 12.37 21.87 20.04 21.87" class="svgShape color3a556a-12 selectable"></polygon><polygon fill="#3a556a" points="8.42 30.78 3.82 30.78 3.82 29.6 7.93 29.6 11.88 25.67 20.04 25.67 20.04 26.85 12.37 26.85" class="svgShape color3a556a-13 selectable"></polygon><polygon fill="#3a556a" points="8.42 46.23 3.82 46.23 3.82 45.05 7.93 45.05 11.88 41.12 20.04 41.12 20.04 42.31 12.37 42.31" class="svgShape color3a556a-14 selectable"></polygon><rect width="16.22" height="1.19" x="3.82" y="35.36" fill="#3a556a" class="svgShape color3a556a-15 selectable"></rect><rect width="31.49" height="31.49" x="17.16" y="16.34" fill="#4bc8f1" class="svgShape color4bc8f1-16 selectable"></rect><path fill="#e1e3e8" d="M46.16,45.34H19.65V18.83h17.34c0,5.07,4.11,9.17,9.17,9.17V45.34z" class="svgShape colore1e3e8-17 selectable"></path><circle cx="24.77" cy="40.39" r="1.98" fill="#ebf0f3" class="svgShape colorebf0f3-18 selectable"></circle><circle cx="61.77" cy="18.42" r="1.98" fill="#3ebedb" class="svgShape color3ebedb-19 selectable"></circle><circle cx="61.77" cy="29.9" r="1.98" fill="#3ebedb" class="svgShape color3ebedb-20 selectable"></circle><g><circle cx="3.7" cy="18.42" r="1.98" fill="#4bc8f1" class="svgShape color4bc8f1-22 selectable"></circle><circle cx="3.7" cy="29.9" r="1.98" fill="#4bc8f1" class="svgShape color4bc8f1-23 selectable"></circle><circle cx="3.7" cy="35.84" r="1.98" fill="#4bc8f1" class="svgShape color4bc8f1-24 selectable"></circle><circle cx="3.7" cy="45.33" r="1.98" fill="#4bc8f1" class="svgShape color4bc8f1-25 selectable"></circle></g><g><circle cx="46.34" cy="3.49" r="1.98" fill="#ff8066" class="svgShape colorf2384e-27 selectable"></circle><circle cx="36.05" cy="3.49" r="1.98" fill="#ff8066" class="svgShape colorf2384e-28 selectable"></circle><circle cx="19.03" cy="3.49" r="1.98" fill="#ff8066" class="svgShape colorf2384e-29 selectable"></circle><circle cx="25.37" cy="3.49" r="1.98" fill="#ff8066" class="svgShape colorf2384e-30 selectable"></circle></g><circle cx="61.77" cy="36.23" r="1.98" fill="#3ebedb" class="svgShape color3ebedb-31 selectable"></circle><circle cx="61.77" cy="45.73" r="1.98" fill="#3ebedb" class="svgShape color3ebedb-32 selectable"></circle><g><circle cx="46.34" cy="60.77" r="1.98" fill="#ff8066" class="svgShape colorf2384e-34 selectable"></circle><circle cx="35.66" cy="60.77" r="1.98" fill="#ff8066" class="svgShape colorf2384e-35 selectable"></circle><circle cx="25.37" cy="60.77" r="1.98" fill="#ff8066" class="svgShape colorf2384e-36 selectable"></circle><circle cx="19.43" cy="60.77" r="1.98" fill="#ff8066" class="svgShape colorf2384e-37 selectable"></circle></g><g><rect width="1.44" height="3.79" x="8.11" y="52.58" fill="#02bf96" transform="rotate(48.792 8.83 54.474)" class="svgShape color02bf96-39 selectable"></rect><path fill="#00dcab" d="M9.48 56.06c-.06.13-.14.26-.26.36L2.9 61.95c-.39.34-.99.31-1.33-.09l-1.09-1.24c-.07-.08-.12-.17-.16-.26C.17 60 .26 59.57.57 59.29l6.32-5.54c.39-.34.99-.3 1.34.09l1.08 1.24C9.55 55.36 9.6 55.74 9.48 56.06zM22.75 54.44c-3.8 3.33-9.58 2.94-12.9-.86-3.33-3.8-2.94-9.58.86-12.9 3.8-3.33 9.58-2.94 12.9.86C26.93 45.33 26.55 51.11 22.75 54.44z" class="svgShape color00dcab-40 selectable"></path><path fill="#ecf0f1" d="M21.53,53.04c-3.03,2.65-7.64,2.35-10.29-0.68c-2.65-3.03-2.35-7.64,0.68-10.29
				c3.03-2.65,7.64-2.35,10.29,0.68C24.86,45.78,24.56,50.39,21.53,53.04z" class="svgShape colorecf0f1-41 selectable"></path></g></svg></g></svg>