<svg id="SvgjsSvg1001" width="288" height="288" xmlns="http://www.w3.org/2000/svg" version="1.1" xmlns:xlink="http://www.w3.org/1999/xlink" xmlns:svgjs="http://svgjs.com/svgjs"><defs id="SvgjsDefs1002"></defs><g id="SvgjsG1008"><svg xmlns="http://www.w3.org/2000/svg" enable-background="new 0 0 64 64" viewBox="0 0 64 64" width="288" height="288"><path fill="#53bded" d="M58,49c0,1.657-1.343,3-3,3H9h0c-1.657,0-3-1.343-3-3V19c0-1.657,1.343-3,3-3h46		c1.657,0,3,1.343,3,3V49z" class="svgShape color53bded-0 selectable"></path><path fill="#6ecced" d="M55,16H11v25c0,1.657,1.343,3,3,3h44V19C58,17.343,56.657,16,55,16z" class="svgShape color6ecced-1 selectable"></path><path fill="#e7b541" d="M43.959,46C43.986,45.67,44,45.337,44,45c0-6.627-5.373-12-12-12s-12,5.373-12,12
			c0,0.337,0.014,0.67,0.041,1L12,46v-4h3.28c0.439-2.459,1.398-4.734,2.772-6.705l-2.316-2.316l4.243-4.243l2.316,2.316
			c1.971-1.374,4.246-2.334,6.705-2.772V25h6v3.28c2.459,0.439,4.734,1.398,6.705,2.772l2.316-2.316l4.243,4.243l-2.316,2.316
			c1.374,1.971,2.334,4.246,2.772,6.705H52v4L43.959,46z" class="svgShape colore7b541-2 selectable"></path><path fill="#f9d161" d="M48.72,42c-0.439-2.459-1.398-4.734-2.772-6.705l2.316-2.316l-4.243-4.243l-2.316,2.316
			c-1.971-1.374-4.246-2.334-6.705-2.772V25h-3v8c6.627,0,12,5.373,12,12c0,0.337-0.014,0.67-0.041,1L52,46v-4H48.72z" class="svgShape colorf9d161-3 selectable"></path><path fill="#caf6c1" d="M26,2H5C3.343,2,2,3.343,2,5v12c0,1.657,1.343,3,3,3h13l8,5l-2-5h2c1.657,0,3-1.343,3-3V5
		C29,3.343,27.657,2,26,2z" class="svgShape colora9dda4-4 selectable"></path><path fill="#dcdddf" d="M43.317,49C43.759,47.749,44,46.402,44,45c0-6.627-5.373-12-12-12s-12,5.373-12,12
			c0,1.403,0.241,2.749,0.683,4" class="svgShape colordcdddf-5 selectable"></path><path fill="#fff" d="M44,45c0-6.627-5.373-12-12-12v16l11.317,0C43.759,47.749,44,46.403,44,45z" class="svgShape colorffffff-6 selectable"></path><path fill="#dff9dc" d="M26,2H5C4.941,2,4.886,2.014,4.828,2.017v10.811C4.828,15.132,6.696,17,9,17h20V5
		C29,3.343,27.657,2,26,2z" class="svgShape colorc9efc5-7 selectable"></path><polygon fill="#484849" points="37 58 36 52 28 52 27 58" class="svgShape color484849-8 selectable"></polygon><path fill="#caf6c1" d="M59,6H45c-1.657,0-3,1.343-3,3v8c0,1.657,1.343,3,3,3h1l-2,5l8-5h7c1.657,0,3-1.343,3-3V9
		C62,7.343,60.657,6,59,6z" class="svgShape colora9dda4-9 selectable"></path><path fill="#dff9dc" d="M59,6H45v7c0,2.209,1.791,4,4,4h13V9C62,7.343,60.657,6,59,6z" class="svgShape colorc9efc5-10 selectable"></path><polyline fill="#2fb238" points="12 17 12 13 14 13 10 9 6 13 8 13 8 17" class="svgShape colorb23e2f-11 selectable"></polyline><polyline fill="#2fb238" points="23 17 23 10 25 10 21 6 17 10 19 10 19 17" class="svgShape colorb23e2f-12 selectable"></polyline><path fill="#3582c0" d="M50,18c-0.334,0-0.646-0.167-0.832-0.445l-1.323-1.985l-2.138,2.138l-1.414-1.414l3-3
			c0.212-0.212,0.502-0.312,0.806-0.288c0.298,0.029,0.567,0.191,0.733,0.44l1.103,1.653l3.197-5.595
			c0.19-0.333,0.544-0.517,0.938-0.502c0.383,0.027,0.717,0.271,0.859,0.627l1.173,2.932l2.004-4.008l1.789,0.895l-3,6
			c-0.177,0.353-0.517,0.581-0.937,0.552c-0.393-0.017-0.74-0.262-0.887-0.628l-1.23-3.077l-2.973,5.202
			c-0.172,0.301-0.487,0.491-0.834,0.503C50.022,18,50.012,18,50,18z" class="svgShape color3582c0-13 selectable"></path><path fill="#9a9b9f" d="M6,49c0,1.657,1.343,3,3,3h46c1.657,0,3-1.343,3-3v-3H6V49z" class="svgShape color9a9b9f-14 selectable"></path><path fill="#b4b5b9" d="M11,47c0,1.657,1.343,3,3,3h43.816C57.928,49.686,58,49.353,58,49v-3H11V47z" class="svgShape colorb4b5b9-15 selectable"></path><path fill="#9a9b9f" d="M37,58H27c-1.105,0-2,0.895-2,2v0c0,1.105,0.895,2,2,2h10c1.105,0,2-0.895,2-2v0
		C39,58.895,38.105,58,37,58z" class="svgShape color9a9b9f-16 selectable"></path><polygon fill="#5a5b5d" points="27 58 37 58 36.333 54 27.667 54" class="svgShape color5a5b5d-17 selectable"></polygon></svg></g></svg>