<svg id="SvgjsSvg1342" width="288" height="288" xmlns="http://www.w3.org/2000/svg" version="1.1" xmlns:xlink="http://www.w3.org/1999/xlink" xmlns:svgjs="http://svgjs.com/svgjs"><defs id="SvgjsDefs1343"></defs><g id="SvgjsG1344" transform="matrix(1,0,0,1,0,0)"><svg xmlns="http://www.w3.org/2000/svg" enable-background="new 0 0 3710 3710" viewBox="0 0 3710 3710" width="288" height="288"><linearGradient id="a" x1="3576.767" x2="1122.238" y1="4030.834" y2="982.463" gradientUnits="userSpaceOnUse"><stop offset="0" stop-color="#dae3fe" class="svgShape stopColordae3fe-2"></stop><stop offset="1" stop-color="#e9effd" class="svgShape stopColore9effd-3"></stop></linearGradient><path fill="url(#a)" d="M2901.51,2828.667c-56.379,59.354-109.725,97.631-151.873,127.872
			c-495.436,355.48-1081.667,251.86-1206.258,226.554c-183.981-37.368-539.614-109.598-796.729-411.961
			c-388.995-457.449-328.422-1178.148-26.692-1653.892c55.191-87.022,346.727-570.011,939.273-647.468
			c358.602-46.876,776.617,47.667,1079.332,301.282C3373.99,1303.415,3328.754,2378.878,2901.51,2828.667z" class="svgShape colorgradient-4 selectable"></path><path fill="#bdd0fb" d="M701.707,994.054c0.712-12.371,17.573-15.572,22.72-4.3
					c49.759,108.982,189.188,390.663,357.141,525.477c273.466,219.508,493.725,610.871,377.727,849.474
					C1459.295,2364.706,624.114,2342.007,701.707,994.054z" class="svgShape colorbdd0fb-5 selectable"></path><path fill="#ffffff" d="M749.573,1153.167c0.87,3.68,1.881,6.648,2.827,9.887l2.998,9.489l6.201,18.891
					c4.218,12.561,8.628,25.053,13.039,37.546c8.91,24.951,18.129,49.789,27.577,74.544c18.986,49.472,39.309,98.424,60.365,147.06
					c20.989,48.67,43.339,96.753,66.698,144.342c23.4,47.566,47.482,94.821,73.106,141.257
					c51.057,92.956,107.217,183.224,169.53,269.161c31.603,42.631,64.336,84.459,99.426,124.299
					c35.363,39.573,72.428,77.662,112.102,112.878c0.863,0.766,2.183,0.687,2.949-0.176c0.747-0.841,0.691-2.118-0.113-2.891
					l-0.021-0.02c-38.138-36.596-74.241-75.175-108.375-115.443c-34.25-40.178-66.133-82.312-96.872-125.211
					c-30.724-42.93-59.713-87.089-87.686-131.871c-27.962-44.804-54.055-90.744-79.882-136.816
					c-51.276-92.392-97.597-187.487-141.264-283.757c-21.733-48.188-42.497-96.819-62.393-145.807
					c-9.987-24.479-19.75-49.051-29.207-73.741l-13.893-37.14l-6.753-18.633l-3.27-9.344c-1.022-3.078-2.172-6.369-2.955-9.099
					l-0.129-0.451c-0.315-1.099-1.462-1.735-2.561-1.42C749.951,1151.006,749.323,1152.099,749.573,1153.167z" opacity=".43" class="svgShape colorffffff-6 selectable"></path><path fill="#91b3fa" d="M1056.25,673.584c4.028-11.151,20.364-9.487,22.009,2.255
					c15.901,113.516,66.921,409.868,184.165,579.318c190.9,275.902,286.124,694.889,114.656,882.056
					C1377.08,2137.213,617.369,1888.558,1056.25,673.584z" class="svgShape color91b3fa-7 selectable"></path><path fill="#ffffff" d="M1056.703,832.553c-0.207,3.62-0.091,6.614-0.108,9.843l0.159,9.521l0.527,19.016
					c0.438,12.671,1.072,25.33,1.706,37.989c1.359,25.313,3.032,50.607,4.938,75.886c3.906,50.551,9.185,100.987,15.219,151.335
					c5.963,50.36,13.339,100.554,21.777,150.569c8.48,50.006,17.672,99.912,28.501,149.49
					c21.461,99.177,48.348,197.281,82.056,293.091c17.359,47.716,35.974,95.004,57.293,141.11
					c21.646,45.935,45.255,90.973,72.048,134.084c0.594,0.955,1.848,1.247,2.803,0.654c0.931-0.578,1.233-1.786,0.698-2.73
					l-0.014-0.024c-24.975-43.973-47.549-89.202-67.854-135.445c-20.44-46.19-38.176-93.526-54.654-141.253
					c-16.457-47.75-30.994-96.152-44.427-144.849c-13.417-48.714-24.808-97.961-35.928-147.255
					c-21.824-98.711-38.356-198.552-52.153-298.745c-6.792-50.117-12.571-100.377-17.461-150.727
					c-2.486-25.171-4.742-50.368-6.683-75.589l-2.617-37.848l-1.115-18.929l-0.453-9.46c-0.098-3.099-0.255-6.435-0.23-9.143
					l0.005-0.458c0.01-1.114-0.884-2.026-1.998-2.036C1057.656,830.64,1056.766,831.486,1056.703,832.553z" opacity=".43" class="svgShape colorffffff-8 selectable"></path><g opacity=".3"><path fill="#91b3fa" d="M2919.781 944.491c3.308.515 5.76 3.458 5.588 6.874-.374 7.472-1.08 15.04-2.095 22.491-.494 3.625-3.832 6.164-7.457 5.67-.043-.007-.085-.013-.128-.02-3.556-.554-6.03-3.856-5.541-7.438.965-7.079 1.634-14.267 1.99-21.366.183-3.653 3.293-6.468 6.948-6.284C2919.322 944.43 2919.554 944.455 2919.781 944.491zM2910.481 1001.439c.256.04.513.095.769.167 3.523.983 5.583 4.638 4.6 8.161-2.021 7.237-4.372 14.459-6.986 21.465-1.279 3.428-5.077 5.164-8.521 3.892-3.427-1.28-5.167-5.096-3.889-8.521 2.485-6.659 4.717-13.52 6.637-20.399C2904.001 1002.936 2907.21 1000.93 2910.481 1001.439zM2888.873 1054.923c.729.113 1.451.352 2.136.723 3.215 1.745 4.41 5.764 2.667 8.98-3.572 6.592-7.477 13.112-11.605 19.376-2.015 3.054-6.122 3.894-9.176 1.886-3.054-2.013-3.898-6.122-1.886-9.176 3.92-5.949 7.627-12.138 11.02-18.399C2883.401 1055.784 2886.183 1054.505 2888.873 1054.923zM2855.841 1102.243c1.204.188 2.371.71 3.353 1.575 2.745 2.417 3.009 6.604.592 9.348-4.962 5.63-10.225 11.113-15.645 16.296-2.644 2.524-6.834 2.431-9.365-.209-2.528-2.643-2.434-6.836.209-9.365 5.147-4.922 10.147-10.13 14.86-15.481C2851.398 1102.646 2853.679 1101.906 2855.841 1102.243zM2813.087 1141.007c1.689.263 3.275 1.175 4.353 2.671 2.141 2.967 1.47 7.107-1.497 9.246-6.071 4.378-12.416 8.559-18.856 12.421-3.135 1.884-7.205.868-9.087-2.271-1.881-3.137-.864-7.205 2.273-9.088 6.123-3.671 12.153-7.644 17.922-11.804C2809.665 1141.119 2811.425 1140.749 2813.087 1141.007zM2762.826 1169.347c2.187.341 4.154 1.768 5.083 3.955 1.43 3.368-.139 7.255-3.505 8.687-6.899 2.932-14.012 5.605-21.138 7.941-3.478 1.14-7.218-.755-8.358-4.232-1.14-3.474.755-7.217 4.23-8.357 6.771-2.221 13.528-4.759 20.084-7.545C2760.403 1169.294 2761.646 1169.163 2762.826 1169.347zM2520.581 1147.583c.906.141 1.796.473 2.612 1.009 5.948 3.906 12.148 7.605 18.426 10.992 3.219 1.737 4.421 5.755 2.684 8.972-1.736 3.22-5.754 4.422-8.974 2.685-6.611-3.567-13.141-7.462-19.406-11.574-3.059-2.008-3.909-6.115-1.901-9.172C2515.492 1148.252 2518.093 1147.196 2520.581 1147.583zM2707.57 1185.832c2.715.423 4.987 2.521 5.5 5.376.646 3.602-1.749 7.044-5.349 7.69-7.38 1.325-14.907 2.345-22.373 3.031-3.643.318-6.868-2.345-7.203-5.989-.335-3.642 2.347-6.867 5.99-7.203 7.09-.65 14.238-1.619 21.245-2.877C2706.125 1185.728 2706.863 1185.722 2707.57 1185.832zM2572.075 1173.612c.432.067.864.176 1.29.334 6.676 2.477 13.548 4.697 20.423 6.602 3.525.979 5.591 4.628 4.614 8.153-.978 3.524-4.628 5.608-8.152 4.614-7.234-2.006-14.465-4.342-21.49-6.947-3.43-1.273-5.18-5.085-3.907-8.514C2565.966 1174.852 2569.028 1173.137 2572.075 1173.612zM2650.017 1189.561c3.303.514 5.754 3.449 5.589 6.861-.176 3.654-3.281 6.472-6.935 6.299-7.481-.361-15.047-1.05-22.487-2.051-.046-.005-.094-.012-.14-.019-3.551-.553-6.023-3.847-5.543-7.425.488-3.627 3.82-6.171 7.447-5.682 7.067.949 14.254 1.602 21.362 1.944C2649.549 1189.501 2649.786 1189.525 2650.017 1189.561zM2484.171 1118.643c1.289.201 2.532.782 3.548 1.752 2.47 2.359 5.031 4.703 7.61 6.974 2.746 2.415 3.015 6.602.599 9.347-2.415 2.748-6.604 3.02-9.348.597-2.714-2.386-5.406-4.853-8.007-7.335-2.646-2.525-2.744-6.719-.219-9.364C2479.91 1118.982 2482.101 1118.321 2484.171 1118.643z" class="svgShape color91b3fa-10 selectable"></path></g><g opacity=".3"><path fill="#91b3fa" d="M2404.143 933.242c3.159.492 5.582 3.215 5.597 6.514.014 3.414.101 6.887.258 10.318.167 3.655-2.66 6.753-6.314 6.919-3.67.167-6.752-2.662-6.919-6.315-.164-3.613-.256-7.269-.272-10.864-.016-3.658 2.937-6.636 6.595-6.653C2403.447 933.16 2403.8 933.189 2404.143 933.242zM2701.543 676.979c3.011.469 6.026.991 9.044 1.565 3.593.685 5.952 4.153 5.268 7.746-.684 3.593-4.172 5.962-7.745 5.269-6.964-1.326-13.966-2.366-20.892-3.099-3.64-.392-6.274-3.645-5.89-7.283.385-3.64 3.647-6.277 7.284-5.891C2692.896 675.74 2697.247 676.31 2701.543 676.979zM2744.412 687.417c.365.057.733.146 1.096.268 7.006 2.351 13.991 5.025 20.758 7.949 3.358 1.45 4.904 5.348 3.455 8.705-1.451 3.359-5.358 4.913-8.708 3.454-6.428-2.776-13.063-5.315-19.721-7.551-3.468-1.163-5.335-4.918-4.172-8.384C2738.163 688.751 2741.281 686.93 2744.412 687.417zM2653.779 674.032c3.086.48 5.491 3.099 5.594 6.333.115 3.658-2.755 6.714-6.412 6.831-6.994.22-14.073.744-21.045 1.559-3.634.419-6.923-2.178-7.347-5.811-.424-3.635 2.178-6.924 5.812-7.348 7.341-.857 14.798-1.409 22.163-1.642C2652.965 673.942 2653.378 673.969 2653.779 674.032zM2795.94 711.307c.831.129 1.649.422 2.413.884 6.313 3.829 12.538 7.975 18.501 12.321 2.956 2.154 3.606 6.296 1.451 9.252-2.155 2.958-6.295 3.61-9.253 1.452-5.663-4.126-11.574-8.063-17.57-11.699-3.128-1.896-4.125-5.971-2.228-9.098C2790.688 712.055 2793.367 710.906 2795.94 711.307zM2597.607 682.095c2.531.394 4.712 2.247 5.395 4.886.917 3.541-1.21 7.156-4.752 8.074-6.77 1.752-13.562 3.822-20.186 6.147-3.451 1.212-7.232-.603-8.444-4.057-1.21-3.451.604-7.229 4.056-8.441 6.973-2.449 14.123-4.627 21.253-6.473C2595.831 681.997 2596.74 681.96 2597.607 682.095zM2544.562 702.289c2.023.315 3.873 1.561 4.88 3.522 1.669 3.255.384 7.247-2.872 8.916-6.242 3.202-12.423 6.704-18.368 10.407-3.102 1.939-7.186.991-9.124-2.117-1.934-3.106-.986-7.189 2.119-9.125 6.258-3.898 12.761-7.583 19.33-10.951C2541.819 702.278 2543.228 702.082 2544.562 702.289zM2497.182 733.568c1.539.24 2.999 1.019 4.073 2.312 2.338 2.812 1.952 6.989-.862 9.327-5.402 4.487-10.672 9.249-15.665 14.159-2.608 2.563-6.799 2.531-9.366-.081-2.563-2.609-2.528-6.801.081-9.367 5.255-5.165 10.802-10.179 16.485-14.901C2493.449 733.753 2495.37 733.285 2497.182 733.568zM2457.754 774.431c1.066.166 2.106.595 3.021 1.301 2.896 2.234 3.432 6.392 1.198 9.288-4.287 5.556-8.384 11.357-12.178 17.245-1.982 3.074-6.085 3.959-9.155 1.981-3.076-1.982-3.961-6.082-1.979-9.156 3.996-6.201 8.311-12.311 12.824-18.16C2453.014 774.948 2455.444 774.072 2457.754 774.431zM2428.247 822.973c.6.093 1.196.273 1.774.541 3.317 1.54 4.758 5.48 3.216 8.796-2.948 6.349-5.665 12.907-8.074 19.497-1.256 3.436-5.069 5.196-8.495 3.946-3.436-1.255-5.203-5.06-3.947-8.496 2.536-6.936 5.396-13.841 8.501-20.524C2422.496 823.991 2425.405 822.53 2428.247 822.973zM2410.138 876.774c.135.021.269.047.403.076 3.573.782 5.836 4.313 5.054 7.885-1.104 5.044-2.064 10.181-2.857 15.274-.287 1.843-.552 3.687-.798 5.526-.485 3.627-3.817 6.174-7.442 5.688-3.681-.419-6.172-3.815-5.689-7.44.258-1.937.538-3.873.84-5.813.834-5.356 1.846-10.762 3.007-16.067C2403.407 878.465 2406.706 876.24 2410.138 876.774zM2841.053 746.069c1.301.203 2.554.793 3.573 1.774 2.582 2.489 5.159 5.079 7.662 7.7 2.527 2.646 2.431 6.838-.214 9.364-2.646 2.526-6.836 2.434-9.365-.214-2.377-2.489-4.826-4.949-7.277-7.313-2.633-2.536-2.711-6.73-.172-9.364C2836.817 746.402 2838.995 745.749 2841.053 746.069z" class="svgShape color91b3fa-12 selectable"></path></g><path fill="#91b3fa" d="M2820.401,820.604c-0.667-1.139-1.985-1.73-3.279-1.47l-36.942,7.408
						c-12.123-12.753-26.366-23.666-42.381-32.116l-2.883-37.542c-0.101-1.317-1.027-2.424-2.304-2.758l-43.727-11.419
						c-1.278-0.333-2.627,0.181-3.359,1.279l-20.87,31.34c-18.102-0.458-35.862,2.096-52.672,7.295l-28.604-24.525
						c-1.002-0.859-2.44-0.988-3.58-0.321l-38.994,22.845c-1.14,0.668-1.73,1.985-1.47,3.28l7.408,36.942
						c-12.753,12.122-23.666,26.366-32.116,42.381l-37.543,2.883c-1.317,0.101-2.424,1.026-2.758,2.304l-11.419,43.728
						c-0.334,1.278,0.18,2.627,1.28,3.358l31.34,20.871c-0.459,18.102,2.095,35.862,7.294,52.672l-24.525,28.604
						c-0.859,1.002-0.988,2.44-0.321,3.579l22.846,38.994c0.667,1.14,1.985,1.73,3.28,1.471l36.942-7.408
						c12.122,12.754,26.365,23.666,42.381,32.116l2.882,37.543c0.101,1.317,1.026,2.424,2.304,2.758l43.728,11.419
						c1.278,0.334,2.626-0.18,3.358-1.279l20.87-31.34c18.102,0.459,35.862-2.096,52.672-7.294l28.603,24.525
						c1.002,0.86,2.441,0.989,3.58,0.321l38.994-22.846c1.139-0.667,1.73-1.984,1.471-3.279l-7.408-36.942
						c12.754-12.122,23.666-26.366,32.116-42.381l37.543-2.882c1.316-0.101,2.424-1.026,2.758-2.305l11.419-43.727
						c0.333-1.278-0.18-2.627-1.279-3.359l-31.34-20.87c0.458-18.102-2.096-35.861-7.294-52.672l24.524-28.604
						c0.86-1.003,0.989-2.44,0.321-3.58L2820.401,820.604z" class="svgShape color91b3fa-13 selectable"></path><path fill="#bdd0fb" d="M2667.631,895.523c21.881,3.407,38.592,22.467,38.406,45.255
							c-0.205,25.05-20.749,45.26-45.797,45.056c-12.136-0.096-23.505-4.917-32.012-13.566c-8.51-8.649-13.143-20.096-13.043-32.23
							c0.205-25.05,20.749-45.26,45.797-45.057C2663.24,895.002,2665.462,895.186,2667.631,895.523z M2655.178,974.819
							c1.69,0.263,3.408,0.405,5.149,0.419c19.204,0.157,34.956-15.342,35.114-34.545c0.156-19.205-15.335-34.964-34.546-35.115
							c-19.204-0.157-34.956,15.342-35.113,34.544c-0.075,9.305,3.475,18.08,10.001,24.713
							C2641.086,970.226,2647.84,973.677,2655.178,974.819z" class="svgShape colorbdd0fb-14 selectable"></path><path fill="#bdd0fb" d="M2676.809,830.549c3.758,0.585,7.508,1.363,11.239,2.336l0,0
						c1.174,0.306,2.344,0.632,3.507,0.976c5.739,1.698,11.333,3.849,16.697,6.42c0.073,0.035,0.146,0.07,0.219,0.105
						c0.207,0.1,0.414,0.201,0.62,0.304c0.403,0.196,0.803,0.397,1.203,0.598c1.051,0.53,1.596,1.665,1.425,2.77
						c-0.042,0.268-0.126,0.535-0.255,0.79c-0.659,1.306-2.253,1.825-3.559,1.169c-6.72-3.395-13.852-6.088-21.196-8.003
						c-36.479-9.533-73.565,1.157-99.349,25.076c-14.343,13.302-25.188,30.699-30.485,50.989c-0.93,3.558-1.673,7.137-2.23,10.721
						c-3.754,24.123,0.865,48.6,13.373,69.947c14.366,24.523,37.423,41.983,64.921,49.164
						c56.793,14.825,115.011-19.301,129.834-76.065c0.914-3.5,1.648-7.033,2.199-10.584c2.394-15.388,1.394-31.129-2.984-46.089
						c-0.113-0.387-0.134-0.778-0.075-1.151c0.153-0.982,0.856-1.838,1.874-2.135c1.406-0.407,2.877,0.39,3.287,1.8
						c4.595,15.706,5.647,32.233,3.134,48.387c-0.579,3.728-1.349,7.436-2.307,11.109c-15.562,59.597-76.724,95.412-136.3,79.855
						c-28.869-7.538-53.072-25.869-68.154-51.613c-13.132-22.411-17.98-48.107-14.04-73.432c0.586-3.763,1.366-7.52,2.34-11.254
						c7.54-28.87,25.869-53.075,51.612-68.157C2625.777,831.45,2651.48,826.604,2676.809,830.549z" class="svgShape colorbdd0fb-15 selectable"></path><g opacity=".3"><path fill="#91b3fa" d="M3169.975 806.8c1.749.272 3.182 1.664 3.424 3.509.454 3.443.81 6.947 1.057 10.414.16 2.253-1.535 4.208-3.79 4.371-2.256.17-4.21-1.537-4.371-3.79-.235-3.304-.574-6.643-1.007-9.929-.296-2.238 1.281-4.292 3.521-4.59C3169.207 806.733 3169.598 806.741 3169.975 806.8zM3171.206 838.245c2.049.319 3.563 2.144 3.451 4.257-.315 5.972-.942 11.995-1.861 17.901-.194 1.243-.402 2.489-.622 3.736-.397 2.227-2.625 3.606-4.744 3.317-2.225-.395-3.708-2.518-3.315-4.741.212-1.192.412-2.382.596-3.57.877-5.633 1.475-11.378 1.777-17.072.119-2.258 2.044-3.988 4.3-3.871C3170.93 838.211 3171.07 838.224 3171.206 838.245zM3163.783 880.068c.191.03.385.072.574.13 2.161.664 3.375 2.952 2.714 5.112-2.123 6.931-4.695 13.792-7.645 20.388-.922 2.064-3.351 2.979-5.404 2.065-2.064-.924-2.987-3.34-2.065-5.404 2.814-6.294 5.266-12.838 7.292-19.448C3159.853 880.944 3161.805 879.76 3163.783 880.068zM3146.44 918.842c.513.08 1.019.26 1.49.543 1.932 1.17 2.547 3.688 1.377 5.62-3.753 6.188-7.934 12.212-12.43 17.896-1.403 1.775-3.968 2.075-5.747.67-1.771-1.4-2.072-3.974-.672-5.745 4.287-5.422 8.274-11.161 11.852-17.064C3143.197 919.303 3144.852 918.594 3146.44 918.842zM3120.095 952.167c.837.13 1.639.522 2.28 1.168 1.585 1.609 1.568 4.202-.042 5.787-5.166 5.09-10.69 9.903-16.425 14.306-1.793 1.374-4.362 1.031-5.735-.756-1.377-1.791-1.039-4.358.754-5.737 5.467-4.195 10.739-8.788 15.663-13.641C3117.55 952.349 3118.858 951.974 3120.095 952.167zM3086.411 978.046c1.168.182 2.25.868 2.898 1.968 1.146 1.945.497 4.452-1.448 5.6-6.241 3.674-12.767 7-19.397 9.881-2.074.906-4.483-.047-5.383-2.12-.9-2.073.049-4.484 2.12-5.383 6.327-2.751 12.552-5.922 18.506-9.43C3084.554 978.064 3085.509 977.906 3086.411 978.046zM3047.471 994.963c1.514.236 2.833 1.319 3.296 2.887.639 2.166-.601 4.439-2.766 5.08-6.946 2.048-14.086 3.682-21.218 4.851-2.237.359-4.333-1.148-4.7-3.376-.366-2.228 1.146-4.333 3.374-4.698 6.802-1.116 13.607-2.672 20.228-4.625C3046.285 994.904 3046.892 994.873 3047.471 994.963zM3005.588 1001.844c1.895.295 3.378 1.896 3.455 3.882.087 2.258-1.672 4.159-3.93 4.248-7.212.28-14.536.109-21.771-.503-2.252-.229-3.923-2.176-3.729-4.426.191-2.251 2.171-3.92 4.422-3.731 6.901.589 13.886.751 20.763.484C3005.067 1001.787 3005.331 1001.804 3005.588 1001.844zM2942.75 992.584c.233.036.469.093.701.174 5.642 1.934 11.489 3.593 17.38 4.93.891.208 1.769.401 2.646.582 2.212.466 3.629 2.631 3.166 4.843-.461 2.217-2.656 3.694-4.842 3.168-.936-.198-1.868-.4-2.803-.618-6.154-1.399-12.284-3.138-18.2-5.167-2.138-.733-3.276-3.058-2.543-5.195C2938.907 993.397 2940.825 992.285 2942.75 992.584z" class="svgShape color91b3fa-17 selectable"></path></g><g opacity=".3"><path fill="#91b3fa" d="M3022.991 658.44c2.207.344 3.734 2.401 3.419 4.62-.318 2.235-2.39 3.792-4.626 3.472-6.734-.96-13.583-1.517-20.359-1.654-2.244-.066-4.055-1.913-4.008-4.174.046-2.261 1.917-4.052 4.174-4.008 7.105.148 14.286.729 21.344 1.735C3022.953 658.434 3022.973 658.437 3022.991 658.44zM3043.496 662.631c.146.023.289.053.435.092 6.88 1.839 13.718 4.117 20.324 6.767 2.096.844 3.115 3.222 2.273 5.319-.841 2.101-3.233 3.107-5.32 2.277-6.303-2.53-12.828-4.703-19.394-6.461-2.182-.582-3.478-2.826-2.894-5.007C3039.467 663.577 3041.459 662.314 3043.496 662.631zM2981.229 657.597c1.792.279 3.243 1.734 3.438 3.624.231 2.243-1.402 4.253-3.65 4.485-6.77.7-13.552 1.815-20.163 3.321-2.209.493-4.396-.879-4.895-3.083-.502-2.201.878-4.396 3.081-4.897 6.929-1.577 14.041-2.746 21.137-3.477C2980.537 657.534 2980.889 657.544 2981.229 657.597zM3082.274 678.22c.459.072.915.223 1.347.46 6.24 3.442 12.33 7.306 18.098 11.483 1.831 1.324 2.24 3.883.915 5.714-1.323 1.823-3.881 2.234-5.712.914-5.501-3.982-11.306-7.663-17.256-10.947-1.977-1.092-2.697-3.581-1.605-5.558C3078.916 678.74 3080.624 677.963 3082.274 678.22zM2940.505 666.874c1.431.223 2.7 1.201 3.223 2.657.766 2.129-.338 4.471-2.463 5.236-6.388 2.296-12.701 5.009-18.767 8.067-2.021 1.02-4.479.204-5.495-1.814-1.016-2.018-.204-4.479 1.814-5.495 6.361-3.202 12.98-6.049 19.677-8.459C2939.162 666.826 2939.852 666.772 2940.505 666.874zM2903.194 685.65c1.095.171 2.116.782 2.778 1.775 1.252 1.881.743 4.422-1.138 5.673-5.665 3.772-11.151 7.919-16.302 12.324-1.719 1.471-4.303 1.267-5.769-.45-1.469-1.717-1.267-4.297.449-5.765 5.402-4.621 11.151-8.97 17.087-12.921C2901.185 685.697 2902.219 685.498 2903.194 685.65zM2871.452 712.826c.77.12 1.514.458 2.13 1.027 1.667 1.525 1.779 4.114.253 5.781-4.6 5.013-8.929 10.355-12.867 15.875-1.312 1.834-3.868 2.264-5.706.951-1.839-1.313-2.266-3.866-.953-5.707 4.131-5.786 8.671-11.39 13.493-16.651C2868.764 713.055 2870.146 712.623 2871.452 712.826zM3116.275 702.845c.78.121 1.532.469 2.154 1.047 2.564 2.385 5.068 4.857 7.446 7.345 1.559 1.634 1.501 4.225-.132 5.786-1.635 1.553-4.222 1.497-5.786-.133-2.266-2.375-4.656-4.732-7.102-7.009-1.654-1.539-1.746-4.129-.208-5.781C3113.608 703.069 3114.978 702.643 3116.275 702.845z" class="svgShape color91b3fa-19 selectable"></path></g><path fill="#91b3fa" d="M3104.783,754.541c-0.447-0.762-1.328-1.158-2.194-0.984l-24.72,4.957
						c-8.112-8.534-17.643-15.836-28.359-21.491l-1.929-25.122c-0.067-0.881-0.687-1.622-1.542-1.846l-29.26-7.641
						c-0.855-0.223-1.758,0.121-2.248,0.856l-13.965,20.971c-12.113-0.307-23.997,1.402-35.246,4.881l-19.14-16.411
						c-0.671-0.575-1.633-0.661-2.396-0.214l-26.093,15.287c-0.763,0.447-1.158,1.328-0.984,2.195l4.957,24.72
						c-8.534,8.112-15.836,17.643-21.491,28.359l-25.122,1.929c-0.881,0.068-1.622,0.687-1.846,1.542l-7.641,29.261
						c-0.223,0.855,0.12,1.758,0.856,2.247l20.971,13.966c-0.307,12.113,1.402,23.997,4.881,35.245l-16.411,19.141
						c-0.575,0.671-0.661,1.633-0.215,2.395l15.287,26.094c0.446,0.763,1.328,1.157,2.194,0.984l24.72-4.958
						c8.111,8.534,17.642,15.836,28.359,21.491l1.929,25.122c0.068,0.881,0.686,1.622,1.542,1.846l29.261,7.641
						c0.855,0.223,1.757-0.12,2.247-0.856l13.965-20.971c12.113,0.307,23.998-1.402,35.246-4.881l19.139,16.41
						c0.671,0.576,1.633,0.662,2.396,0.215l26.093-15.287c0.762-0.447,1.158-1.328,0.984-2.195l-4.957-24.72
						c8.534-8.112,15.836-17.643,21.49-28.36l25.122-1.928c0.88-0.067,1.622-0.687,1.845-1.542l7.641-29.26
						c0.223-0.855-0.121-1.758-0.856-2.248l-20.971-13.966c0.307-12.113-1.402-23.997-4.88-35.245l16.41-19.14
						c0.575-0.671,0.661-1.633,0.215-2.396L3104.783,754.541z" class="svgShape color91b3fa-20 selectable"></path><path fill="#bdd0fb" d="M3002.686,804.139c6.521,1.015,12.521,4.08,17.233,8.869
							c5.796,5.892,8.951,13.689,8.882,21.955c-0.137,17.057-14.13,30.824-31.193,30.69c-17.085-0.17-30.832-14.137-30.692-31.197
							c0.066-8.266,3.349-16.011,9.24-21.805c5.892-5.798,13.69-8.954,21.957-8.884
							C2999.658,803.78,3001.187,803.905,3002.686,804.139z M2994.344,857.2c1.088,0.169,2.199,0.261,3.332,0.272
							c12.551,0.099,22.843-10.028,22.945-22.578c0.049-6.077-2.27-11.816-6.534-16.147c-4.266-4.335-9.962-6.743-16.042-6.8l0,0
							c-6.079-0.049-11.816,2.272-16.149,6.534c-4.335,4.266-6.749,9.962-6.798,16.044
							C2975.004,845.94,2983.38,855.493,2994.344,857.2z" class="svgShape colorbdd0fb-21 selectable"></path><path fill="#bdd0fb" d="M3009.132,758.921c2.558,0.398,5.115,0.93,7.672,1.595c5.076,1.324,10.023,3.166,14.714,5.481
						c0.21,0.106,0.42,0.211,0.63,0.317c1.623,0.819,2.464,2.571,2.201,4.277c-0.065,0.414-0.196,0.827-0.394,1.22
						c-1.018,2.017-3.479,2.814-5.495,1.805c-4.359-2.203-8.976-3.945-13.72-5.181l-0.002,0c-0.26-0.069-0.523-0.134-0.782-0.198
						c-11.255-2.824-22.788-2.736-33.733,0.088c-5.942,1.533-11.712,3.877-17.171,7.01c-0.044,0.025-0.089,0.051-0.133,0.076
						c-0.136,0.08-0.271,0.156-0.405,0.236c-15.874,9.302-27.178,24.227-31.826,42.029c-0.604,2.304-1.083,4.619-1.445,6.94
						c-2.43,15.616,0.561,31.462,8.657,45.285c9.302,15.875,24.229,27.175,42.028,31.823c17.791,4.639,36.348,2.086,52.225-7.211
						c15.874-9.302,27.178-24.227,31.826-42.029c0.593-2.265,1.067-4.552,1.425-6.85c1.549-9.964,0.902-20.152-1.932-29.836
						c-0.174-0.597-0.208-1.201-0.116-1.777c0.236-1.516,1.321-2.839,2.893-3.298c2.17-0.628,4.44,0.607,5.076,2.78
						c3.17,10.836,3.896,22.237,2.164,33.382c-0.401,2.574-0.93,5.131-1.592,7.665c-5.202,19.919-17.848,36.617-35.611,47.023
						c-17.76,10.403-38.502,13.286-58.425,8.069c-19.917-5.2-36.616-17.843-47.02-35.608c-9.061-15.461-12.405-33.189-9.687-50.661
						c0.404-2.594,0.941-5.186,1.613-7.762C2932.841,777.049,2970.57,752.916,3009.132,758.921z" class="svgShape colorbdd0fb-22 selectable"></path><g><linearGradient id="b" x1="3160.201" x2="2455.721" y1="1234.386" y2="1910.966" gradientUnits="userSpaceOnUse"><stop offset="0" stop-color="#4868f4" class="svgShape stopColorff928e-25"></stop><stop offset="1" stop-color="#4868f4" class="svgShape stopColorfe7062-26"></stop></linearGradient><path fill="url(#b)" d="M2152.153,3252.553H1295.93V1992.01
				c0-22.326,18.099-40.424,40.424-40.424h775.374c22.325,0,40.424,18.099,40.424,40.424V3252.553z" class="svgShape colorgradient-27 selectable"></path><linearGradient id="c" x1="1279.06" x2="2485.078" y1="2871.015" y2="1511.631" gradientUnits="userSpaceOnUse"><stop offset="0" stop-color="#7294e6" class="svgShape stopColorff928e-29"></stop><stop offset="1" stop-color="#4868f4" class="svgShape stopColorfe7062-30"></stop></linearGradient><path fill="url(#c)" d="M1934.65,3252.553h-856.223V1992.01
				c0-22.326,18.099-40.424,40.424-40.424h775.374c22.326,0,40.424,18.099,40.424,40.424V3252.553z" class="svgShape colorgradient-31 selectable"></path><path fill="#ffffff" d="M1135.835 2195.135c-2.811 0-5.092-2.279-5.092-5.092v-92.3c0-49.513 46.886-89.795 104.52-89.795h164.431c2.811 0 5.092 2.279 5.092 5.092 0 2.813-2.281 5.092-5.092 5.092h-164.431c-52.018 0-94.337 35.714-94.337 79.611v92.3C1140.926 2192.856 1138.646 2195.135 1135.835 2195.135zM1135.835 2293.003c-2.811 0-5.092-2.279-5.092-5.092v-37.605c0-2.813 2.281-5.092 5.092-5.092 2.811 0 5.092 2.279 5.092 5.092v37.605C1140.926 2290.724 1138.646 2293.003 1135.835 2293.003z" opacity=".43" class="svgShape colorffffff-32 selectable"></path></g><g><path fill="#7d97f4" d="M1276.306,3255H647.792v-878.454c0-22.326,18.099-40.424,40.424-40.424h547.665
				c22.326,0,40.424,18.099,40.424,40.424V3255z" class="svgShape color7d97f4-34 selectable"></path><path fill="#91b3fa" d="M1091.018,3255H462.504v-878.454c0-22.326,18.099-40.424,40.424-40.424h547.666
				c22.326,0,40.424,18.099,40.424,40.424V3255z" class="svgShape color91b3fa-35 selectable"></path><path fill="#bdd0fb" d="M514.387 2598.413c-2.811 0-5.092-2.279-5.092-5.092v-108.899c0-57.912 47.115-105.025 105.027-105.025h165.263c2.811 0 5.092 2.279 5.092 5.092s-2.281 5.092-5.092 5.092H614.322c-52.297 0-94.844 42.545-94.844 94.842v108.899C519.479 2596.135 517.198 2598.413 514.387 2598.413zM514.387 2713.879c-2.811 0-5.092-2.279-5.092-5.092v-44.367c0-2.813 2.281-5.092 5.092-5.092 2.811 0 5.092 2.279 5.092 5.092v44.367C519.479 2711.6 517.198 2713.879 514.387 2713.879z" class="svgShape colorbdd0fb-36 selectable"></path></g><g><path fill="#7d97f4" d="M1987.941 1968.06c.894 0 1.801-.052 2.71-.155 12.889-1.479 22.136-13.127 20.653-26.018L1863.859 658.781c-1.479-12.88-13.15-22.113-26.016-20.651-12.889 1.479-22.136 13.127-20.653 26.019l147.445 1283.106C1966.011 1959.228 1976.167 1968.06 1987.941 1968.06zM1177.42 1968.066c10.75 0 20.448-7.426 22.899-18.356L1488.01 666.603c2.836-12.657-5.124-25.222-17.783-28.06-12.631-2.816-25.219 5.121-28.06 17.783l-287.689 1283.106c-2.839 12.656 5.121 25.221 17.78 28.06C1173.988 1967.876 1175.717 1968.066 1177.42 1968.066zM1663.264 1968.06c12.972 0 23.49-10.518 23.49-23.49v-633.235c0-12.972-10.518-23.49-23.49-23.49s-23.49 10.518-23.49 23.49v633.235C1639.774 1957.542 1650.292 1968.06 1663.264 1968.06z" class="svgShape color7d97f4-38 selectable"></path><linearGradient id="d" x1="1105.213" x2="2133.485" y1="1025.697" y2="1025.697" gradientUnits="userSpaceOnUse"><stop offset="0" stop-color="#4f52ff" class="svgShape stopColor4f52ff-40"></stop><stop offset="1" stop-color="#4042e2" class="svgShape stopColor4042e2-41"></stop></linearGradient><path fill="url(#d)" d="M2133.352,517.914l-82.585,1040.204
						c-1.747,22.001-20.385,38.801-42.448,38.262l-862.546-21.038c-25.146-0.614-43.989-23.247-40.034-48.087L1270.863,490.03
						c3.269-20.539,21.217-35.5,42.01-35.018l780.007,18.059C2116.745,473.623,2135.241,494.118,2133.352,517.914z" class="svgShape colorgradient-42 selectable"></path><path fill="#ffffff" d="M2061.153,501.704l-723.318-16.745c-20.793-0.482-38.74,14.48-42.01,35.019
						l-155.812,978.74c-3.955,24.841,14.888,47.474,40.034,48.087l801.199,19.542c22.064,0.538,40.701-16.261,42.448-38.262
						l77.931-981.537C2103.514,522.751,2085.018,502.256,2061.153,501.704z" opacity=".97" class="svgShape colorffffff-43 selectable"></path><path fill="#91b3fa" d="M1685.475 567.596l364.554 20.332c3.737.209 6.562 3.464 6.242 7.194l-.502 5.855c-.31 3.615-3.468 6.312-7.088 6.051l-364.052-26.186c-3.692-.265-6.452-3.499-6.136-7.186l0 0C1678.8 570.079 1681.893 567.396 1685.475 567.596zM1675.877 604.14l-.214 2.496c-.313 3.651 2.393 6.866 6.044 7.179l363.621 31.208c3.652.314 6.866-2.393 7.18-6.044l.214-2.496c.313-3.651-2.393-6.866-6.044-7.179l-363.621-31.209C1679.405 597.782 1676.19 600.489 1675.877 604.14zM1783.445 646.21l-.094 1.095c-.314 3.651 2.393 6.866 6.044 7.179l253.255 21.736c3.651.313 6.865-2.393 7.179-6.045l.441-5.148c.317-3.693-2.453-6.929-6.15-7.187l-253.603-17.684C1786.903 639.905 1783.755 642.6 1783.445 646.21z" class="svgShape color91b3fa-44 selectable"></path><g><linearGradient id="e" x1="1786.903" x2="1786.009" y1="1162.064" y2="1338.297" gradientTransform="rotate(3.865 -320.97 -1896.699)" gradientUnits="userSpaceOnUse"><stop offset="0" stop-color="#4f52ff" class="svgShape stopColor4f52ff-47"></stop><stop offset="1" stop-color="#4042e2" class="svgShape stopColor4042e2-48"></stop></linearGradient><path fill="url(#e)" d="M1680.087,1367.26
					c-0.063-4.792-4.652-9.247-12.673-13.111c9.293-4.335,14.607-9.295,14.539-14.516c-0.205-15.8-49.375-27.971-109.823-27.185
					c-60.448,0.786-109.285,14.232-109.079,30.031c0.062,4.793,4.652,9.247,12.673,13.112c-9.293,4.335-14.607,9.295-14.539,14.517
					c0.062,4.792,4.652,9.246,12.673,13.111c-9.294,4.335-14.607,9.295-14.539,14.517c0.062,4.792,4.652,9.247,12.673,13.111
					c-9.294,4.335-14.607,9.295-14.539,14.517c0.091,6.988,9.771,13.263,25.757,18.024c-0.558,5.122-0.82,10.759-0.735,17.007
					c0.396,29.115,31.433,54.019,74.511,56.929c43.08,2.91,82.456-25.527,84.842-54.547c0.584-7.112,0.705-13.398,0.436-19.011
					c21.077-5.49,34.198-13.05,34.092-21.25c-0.062-4.792-4.652-9.247-12.673-13.111c9.293-4.335,14.607-9.295,14.539-14.517
					c-0.062-4.792-4.652-9.247-12.673-13.111C1674.84,1377.441,1680.154,1372.481,1680.087,1367.26z" class="svgShape colorgradient-49 selectable"></path><path fill="#7d97f4" d="M1534.678 1453.145c-17.855-1.206-34.104-3.623-47.428-7.12-.773-.203-1.235-.994-1.033-1.767.203-.772.991-1.236 1.767-1.032 20.849 5.471 49.001 8.268 79.271 7.874 24.768-.322 48.074-2.739 67.399-6.99.783-.172 1.553.322 1.724 1.102.172.781-.321 1.552-1.102 1.724-19.513 4.292-43.021 6.732-67.983 7.057C1556.05 1454.14 1545.091 1453.848 1534.678 1453.145zM1536.846 1425.512c-23.199-1.567-43.783-5.149-58.125-10.302-.752-.27-1.142-1.099-.873-1.851.271-.753 1.097-1.142 1.852-.873 20.437 7.341 53.865 11.447 89.422 10.985 35.172-.457 68.276-5.352 88.553-13.093.747-.284 1.583.09 1.869.836.284.747-.09 1.584-.836 1.869-20.579 7.855-54.055 12.821-89.548 13.283C1558.083 1426.51 1547.203 1426.212 1536.846 1425.512zM1538.415 1397.885c-25.048-1.692-46.795-5.735-61.219-11.597-.741-.301-1.097-1.145-.797-1.885.301-.741 1.142-1.098 1.885-.796 20.073 8.157 54.729 12.731 92.703 12.238 35.169-.457 68.273-5.352 88.553-13.094.747-.283 1.583.09 1.869.836.284.747-.09 1.583-.836 1.869-20.581 7.856-54.057 12.822-89.548 13.284C1559.779 1398.885 1548.811 1398.587 1538.415 1397.885zM1540.475 1370.257c-19.869-1.342-37.832-4.17-51.671-8.24-.767-.226-1.206-1.03-.98-1.796.226-.767 1.033-1.207 1.797-.98 20.809 6.121 51.147 9.392 83.234 8.975 34.856-.453 67.788-5.282 88.094-12.919.748-.283 1.582.097 1.864.846.282.748-.097 1.582-.845 1.864-20.601 7.748-53.901 12.646-89.074 13.103C1561.778 1371.255 1550.865 1370.959 1540.475 1370.257z" class="svgShape color7d97f4-50 selectable"></path><linearGradient id="f" x1="1498.359" x2="1661.285" y1="1436.083" y2="585.807" gradientUnits="userSpaceOnUse"><stop offset="0" stop-color="#f7f7f7" class="svgShape stopColorff928e-52"></stop><stop offset="1" stop-color="#aee0f9" class="svgShape stopColorfe7062-53"></stop></linearGradient><path fill="url(#f)" d="M1431.438,1210.366
					c-5.555-26.356-16.325-51.364-31.606-73.545c-32.744-47.525-84.935-143.205-83.664-268.893
					c1.849-182.819,169.521-263.084,316.068-240.75c146.547,22.334,284.564,141.896,257.198,310.241
					c-16.838,103.583-80.527,178.712-127.037,221.188c-29.534,26.972-51.597,60.961-64.847,98.699
					c-16.217,46.19-51.206,102.754-125.192,101.348C1476.621,1356.835,1442.998,1265.213,1431.438,1210.366z" class="svgShape colorgradient-54 selectable"></path><linearGradient id="g" x1="1908.252" x2="1801.328" y1="606.751" y2="1283.937" gradientTransform="rotate(3.865 -320.97 -1896.699)" gradientUnits="userSpaceOnUse"><stop offset="0" stop-color="#000000" class="svgShape stopColore1473d-56"></stop><stop offset="1" stop-color="#3d3b3b" class="svgShape stopColore9605a-57"></stop></linearGradient><path fill="url(#g)" d="M1599.187,1323.985l74.228-331.928
					c1.533-6.857,5.257-11.28,8.318-9.879c3.061,1.402,4.299,8.096,2.766,14.954c-0.042,0.183-0.094,0.408-0.139,0.587
					l-81.189,328.326c-0.61,2.469-1.987,3.962-3.073,3.334C1599.045,1328.77,1598.653,1326.379,1599.187,1323.985z" class="svgShape colorgradient-58 selectable"></path><linearGradient id="h" x1="1795.04" x2="1688.117" y1="588.876" y2="1266.061" gradientTransform="rotate(3.865 -320.97 -1896.699)" gradientUnits="userSpaceOnUse"><stop offset="0" stop-color="#363636" class="svgShape stopColore1473d-60"></stop><stop offset="1" stop-color="#4f4b4b" class="svgShape stopColore9605a-61"></stop></linearGradient><path fill="url(#h)" d="M1545.476,1323.032l-28.911-338.895
					c-0.597-7.001-3.693-11.885-6.914-10.908c-3.222,0.977-5.349,7.444-4.752,14.446c0.016,0.186,0.039,0.417,0.058,0.601
					l36.293,336.263c0.273,2.529,1.436,4.193,2.596,3.717C1544.973,1327.792,1545.683,1325.476,1545.476,1323.032z" class="svgShape colorgradient-62 selectable"></path><path fill="#ffffff" d="M1674.99,963.234c-1.167-2.195-4.145-3.186-6.651-2.215l-29.621,11.477l-8.049-29.073
					c-0.427-1.517-1.561-2.913-3.255-3.749c-3.211-1.584-7.244-0.634-9.007,2.123l-0.057,0.089l-26.523,41.462l-17.773-62.774
					l-0.029-0.104c-0.435-1.532-1.476-2.953-3.064-3.964c-3.539-2.254-8.458-1.626-10.987,1.403l-36.084,43.218
					c-1.469,1.772-1.175,4.299,0.776,5.814c2.082,1.618,5.249,1.488,7.072-0.288l31.259-30.462l22.232,60.076l0.017,0.046
					c0.356,0.961,1.091,1.829,2.153,2.416c2.378,1.316,5.498,0.73,6.968-1.309l27.994-38.822l8.121,21.141l0.072,0.188
					c0.059,0.152,0.127,0.302,0.207,0.451c1.166,2.193,4.141,3.183,6.645,2.213l35.161-13.624
					C1675.072,967.994,1676.157,965.428,1674.99,963.234z" class="svgShape colorffffff-63 selectable"></path><path fill="#ffffff" d="M1766.257 1118.138c-1.916-.129-3.807-.852-5.378-2.191-3.891-3.318-4.357-9.162-1.04-13.056 9.516-11.161 18.327-22.76 26.191-34.475 2.849-4.246 8.599-5.377 12.849-2.528 4.249 2.849 5.38 8.603 2.528 12.848-8.258 12.304-17.5 24.472-27.472 36.171C1771.956 1117.227 1769.081 1118.329 1766.257 1118.138zM1813.601 1048.198c-1.227-.083-2.459-.414-3.624-1.015-4.542-2.349-6.322-7.935-3.973-12.481 62.421-120.755 22.959-228.138 22.551-229.211-1.813-4.781.594-10.127 5.378-11.943 4.793-1.806 10.133.597 11.943 5.378 1.774 4.685 42.76 116.256-23.418 244.28C1820.71 1046.588 1817.171 1048.44 1813.601 1048.198z" opacity=".69" class="svgShape colorffffff-64 selectable"></path></g></g><g><linearGradient id="i" x1="-2317.304" x2="-2254.3" y1="1150.254" y2="1330.267" gradientTransform="matrix(-1 0 0 1 -1123.398 0)" gradientUnits="userSpaceOnUse"><stop offset="0" stop-color="#febbba" class="svgShape stopColorfebbba-67"></stop><stop offset="1" stop-color="#ff928e" class="svgShape stopColorff928e-68"></stop></linearGradient><path fill="url(#i)" d="M1165.938,1246.815
					c0.97,3.082-10.258,7.776-16.869-4.831c-0.231-6.042-3.906-31.926-0.295-36.847c19.228-26.214,56.507-59.076,56.507-59.076
					c6.301,6.217,1.11,12.324,1.11,12.324l-18.084,18.839c3.783,6.836,8.397,12.606,10.559,20.874
					c1.638,6.261,0.636,12.953-2.526,18.651c-3.175,5.719-7.505,13.153-11.6,18.971
					C1176.989,1246.732,1165.938,1246.815,1165.938,1246.815z" class="svgShape colorgradient-69 selectable"></path><linearGradient id="j" x1="-2268.903" x2="-2316.361" y1="1265.264" y2="1169.529" gradientTransform="matrix(-1 0 0 1 -1123.398 0)" gradientUnits="userSpaceOnUse"><stop offset="0" stop-color="#febbba" class="svgShape stopColorfebbba-71"></stop><stop offset="1" stop-color="#ff928e" class="svgShape stopColorff928e-72"></stop></linearGradient><path fill="url(#j)" d="M1180.396,1189.448l-16.48,13.971
					l-5.174,13.909l14.694,16.301c0,0,4.94-27.599,8.612-33.572C1185.719,1194.083,1183.815,1191.194,1180.396,1189.448z" class="svgShape colorgradient-73 selectable"></path><g><linearGradient id="k" x1="7067.979" x2="6665.958" y1="2243.099" y2="2680.386" gradientTransform="translate(-6098.68)" gradientUnits="userSpaceOnUse"><stop offset="0" stop-color="#09005d" class="svgShape stopColor09005d-76"></stop><stop offset="1" stop-color="#1a0f91" class="svgShape stopColor1a0f91-77"></stop></linearGradient><path fill="url(#k)" d="M842.22,2275.675
					c0,0-4.164,23.57-6.205,46.902c-0.798,9.118,6.232,17.035,15.378,17.417c31.071,1.293,97.533,3.81,121.381,2.746
					c3.585-0.16,5.93-3.83,4.603-7.165c-1.112-2.794-3.257-5.054-5.989-6.309l-109.783-50.456L842.22,2275.675z" class="svgShape colorgradient-78 selectable"></path><linearGradient id="l" x1="6937.489" x2="6973.198" y1="2275.577" y2="2275.577" gradientTransform="translate(-6098.68)" gradientUnits="userSpaceOnUse"><stop offset="0" stop-color="#febbba" class="svgShape stopColorfebbba-80"></stop><stop offset="1" stop-color="#ff928e" class="svgShape stopColorff928e-81"></stop></linearGradient><path fill="url(#l)" d="M838.809,2261.826l3.345,28.193
					c0,0,19.231,8.952,32.364-1.128l-7.964-31.418L838.809,2261.826z" class="svgShape colorgradient-82 selectable"></path><linearGradient id="m" x1="7099.634" x2="6757.552" y1="1748.575" y2="2212.222" gradientTransform="translate(-6098.68)" gradientUnits="userSpaceOnUse"><stop offset="0" stop-color="#09005d" class="svgShape stopColor09005d-84"></stop><stop offset="1" stop-color="#1a0f91" class="svgShape stopColor1a0f91-85"></stop></linearGradient><path fill="url(#m)" d="M841.323,1731.794
					c-1.445,7.362-7.755,367.399,30.729,528.744c0.628,2.633-0.707,5.346-3.212,6.37c-5.902,2.412-17.475,5.904-31.343,6.37
					c-4.295,0.144-8.145-2.647-9.357-6.77c-11.001-37.435-63.715-224.992-70.592-404.16c-7.684-200.203,0-6.817,0-6.817
					l4.507-123.753L841.323,1731.794z" class="svgShape colorgradient-86 selectable"></path><linearGradient id="n" x1="6977.791" x2="6575.772" y1="2160.187" y2="2597.471" gradientTransform="translate(-6098.68)" gradientUnits="userSpaceOnUse"><stop offset="0" stop-color="#09005d" class="svgShape stopColor09005d-88"></stop><stop offset="1" stop-color="#1a0f91" class="svgShape stopColor1a0f91-89"></stop></linearGradient><path fill="url(#n)" d="M715.933,2287.971
					c0,0-6.627,11.899-13.044,43.517c-1.158,5.71,2.831,11.175,8.63,11.745c10.259,1.009,26.054,2.307,38.705,2.219
					c5.833-0.04,10.384-5.118,9.681-10.908c-1.401-11.541-5.767-30.476-19.254-45.234L715.933,2287.971z" class="svgShape colorgradient-90 selectable"></path><linearGradient id="o" x1="6808.792" x2="6839.624" y1="2273.746" y2="2273.746" gradientTransform="translate(-6098.68)" gradientUnits="userSpaceOnUse"><stop offset="0" stop-color="#febbba" class="svgShape stopColorfebbba-92"></stop><stop offset="1" stop-color="#ff928e" class="svgShape stopColorff928e-93"></stop></linearGradient><path fill="url(#o)" d="M710.112,2251.709l7.816,42.634
					c0,0,7.728,5.749,23.016,1.582l-3.73-45.873L710.112,2251.709z" class="svgShape colorgradient-94 selectable"></path><linearGradient id="p" x1="7038.667" x2="6696.585" y1="1703.592" y2="2167.24" gradientTransform="translate(-6098.68)" gradientUnits="userSpaceOnUse"><stop offset="0" stop-color="#09005d" class="svgShape stopColor09005d-96"></stop><stop offset="1" stop-color="#1a0f91" class="svgShape stopColor1a0f91-97"></stop></linearGradient><path fill="url(#p)" d="M688.997,1742.842
					c-31.476,189.959,6.828,469.498,19.746,524.211c0.791,3.35,3.494,5.916,6.889,6.479c5.766,0.956,15.26,1.736,24.619-0.982
					c3.224-0.936,5.49-3.845,5.622-7.201c1.733-44.233-1.386-315.784,27.942-423.103c1.486-5.439,4.807-10.182,9.403-13.449
					l56.924-40.468l4.364-65.413L688.997,1742.842z" class="svgShape colorgradient-98 selectable"></path><linearGradient id="q" x1="1964.977" x2="2197.499" y1="10539.156" y2="10114.845" gradientTransform="translate(-6098.68)" gradientUnits="userSpaceOnUse"><stop offset="0" stop-color="#c6c5c5" class="svgShape stopColorff928e-100"></stop><stop offset="1" stop-color="#d2d1d1" class="svgShape stopColorfe7062-101"></stop></linearGradient><path fill="url(#q)" d="M889.562,1382.907
						c-94.327-1.558-198.406,24.767-198.406,24.767c-28.117,164.061-4.917,353.294-4.917,353.294
						c73.025,19.15,155.403-11.708,155.403-11.708c12.137-68.574,68.767-261.563,68.767-261.563
						c46.088-5.72,84.054-19.017,115.32-36.597c-23.849-27.644-35.092-62.82-39.975-83.613
						C952.403,1377.852,918.656,1383.388,889.562,1382.907z" class="svgShape colorgradient-102 selectable"></path><linearGradient id="r" x1="-2263.453" x2="-2200.448" y1="1131.406" y2="1311.42" gradientTransform="matrix(-1 0 0 1 -1123.398 0)" gradientUnits="userSpaceOnUse"><stop offset="0" stop-color="#febbba" class="svgShape stopColorfebbba-104"></stop><stop offset="1" stop-color="#ff928e" class="svgShape stopColorff928e-105"></stop></linearGradient><path fill="url(#r)" d="M1168.187,1243.968
						c-9.266-11.191-20.994-5.897-20.994-5.897c-13.881,58.635-86.665,106.178-161.439,129.416
						c4.883,20.793,16.126,55.969,39.975,83.613C1149.824,1381.327,1168.187,1243.968,1168.187,1243.968z" class="svgShape colorgradient-106 selectable"></path><linearGradient id="s" x1="1846.608" x2="2079.13" y1="10474.31" y2="10049.998" gradientTransform="translate(-6098.68)" gradientUnits="userSpaceOnUse"><stop offset="0" stop-color="#cecaca" class="svgShape stopColorff928e-108"></stop><stop offset="1" stop-color="#dad8d8" class="svgShape stopColorfe7062-109"></stop></linearGradient><path fill="url(#s)" d="M727.336,1499.011l-36.18-91.336
					c0,0-88.107,59.865-102.597,135.766c16.648,1.226,46.941,5.556,76.593,20.528
					C671.669,1528.129,727.336,1499.011,727.336,1499.011z" class="svgShape colorgradient-110 selectable"></path><linearGradient id="t" x1="6862.508" x2="6953.787" y1="1355.557" y2="1355.557" gradientTransform="translate(-6098.68)" gradientUnits="userSpaceOnUse"><stop offset="0" stop-color="#febbba" class="svgShape stopColorfebbba-112"></stop><stop offset="1" stop-color="#ff928e" class="svgShape stopColorff928e-113"></stop></linearGradient><path fill="url(#t)" d="M794.016,1306.328l-30.014,86.797
					c-0.497,1.438,0.094,3.03,1.425,3.766c8.181,4.523,37.657,17.598,73.178-4.923c3.7-2.346,6.219-6.172,6.781-10.518l9.719-75.122
					H794.016z" class="svgShape colorgradient-114 selectable"></path><linearGradient id="u" x1="687.397" x2="613.19" y1="2026.704" y2="1493.755" gradientUnits="userSpaceOnUse"><stop offset="0" stop-color="#febbba" class="svgShape stopColorfebbba-116"></stop><stop offset="1" stop-color="#ff928e" class="svgShape stopColorff928e-117"></stop></linearGradient><path fill="url(#u)" d="M665.152,1563.969
					c0,0-30.795,138.927-2.9,217.032c-34.198,15.856-27.881,12.867-27.881,12.867s-67.654-197.671-45.813-250.427
					C631.622,1538.872,652.982,1550.443,665.152,1563.969z" class="svgShape colorgradient-118 selectable"></path><linearGradient id="v" x1="678.561" x2="619.343" y1="1975.437" y2="1550.142" gradientUnits="userSpaceOnUse"><stop offset="0" stop-color="#febbba" class="svgShape stopColorfebbba-120"></stop><stop offset="1" stop-color="#ff928e" class="svgShape stopColorff928e-121"></stop></linearGradient><path fill="url(#v)" d="M662.253,1781.001
					c0,0,17.622,22.808,16.213,31.893c-1.409,9.085-1.746,12.786-1.746,12.786s-8.855-6.056-8.297-13.795
					c1.231,24.562,9.452,52.489,1.977,51.143c-7.475-1.346-46.168-37.012-37.42-75.032
					C652.83,1774.2,658.395,1775.7,662.253,1781.001z" class="svgShape colorgradient-122 selectable"></path><g><linearGradient id="w" x1="353.281" x2="225.665" y1="-782.193" y2="-613.367" gradientTransform="rotate(-35.751 3714.01 -505.466)" gradientUnits="userSpaceOnUse"><stop offset="0" stop-color="#febbba" class="svgShape stopColorfebbba-125"></stop><stop offset="1" stop-color="#ff928e" class="svgShape stopColorff928e-126"></stop></linearGradient><path fill="url(#w)" d="M844.832,1218.359
						c0.983,1.365,31.662,108.297,31.662,108.297l-61.429,16.219l-44.135-97.029
						C770.931,1245.847,828.374,1195.499,844.832,1218.359z" class="svgShape colorgradient-127 selectable"></path><linearGradient id="x" x1="255.818" x2="408.257" y1="-741.649" y2="-741.649" gradientTransform="rotate(-35.751 3714.01 -505.466)" gradientUnits="userSpaceOnUse"><stop offset="0" stop-color="#09005d" class="svgShape stopColor09005d-129"></stop><stop offset="1" stop-color="#1a0f91" class="svgShape stopColor1a0f91-130"></stop></linearGradient><path fill="url(#x)" d="M795.325,1253.028
						c-1.505,2.398-1.82,5.339-0.853,8l18.956,52.132c0.288,0.791,0.669,1.53,1.165,2.21c2.732,3.751,12.391,14.993,23.596,4.412
						c9.551-9.018,18.452-17.174,26.773-19.636c4.858-1.437,9.935,1.448,11.314,6.324c2.841,10.043,8.164,30.425,10.35,49.197
						c0.548,4.706-2.663,9.02-7.312,9.93c-12.267,2.402-36.362,6.375-56.843,5.258c-3.365-0.183-6.34-2.195-7.772-5.245
						c-6.301-13.422-24.116-50.969-30.776-60.794c-6.188-9.128-20.901-8.993-27.635-8.397c-2.556,0.226-5.069-0.61-6.975-2.327
						c-5.715-5.153-15.126-17.051-1.607-31.481c3.361-3.588,3.107-9.284-0.41-12.719c-6.303-6.154-12.412-16.596-2.141-29.594
						c10.399-13.158,24.157-11.852,33.135-8.944c3.973,1.287,8.518-0.046,10.814-3.534c1.021-1.552,2.673-2.722,5.329-2.745
						c5.01-0.043,9.029-3.837,9.02-8.848c-0.017-8.59,3.29-19.105,17.913-23.807c26.82-8.624,43.837,17.206,45.68,36.581
						c1.843,19.375-27.767,27.072-45.231,25.927C808.988,1234.089,799.473,1246.421,795.325,1253.028z" class="svgShape colorgradient-131 selectable"></path><linearGradient id="y" x1="166.373" x2="268.732" y1="-648.495" y2="-753.512" gradientTransform="rotate(-35.751 3714.01 -505.466)" gradientUnits="userSpaceOnUse"><stop offset="0" stop-color="#febbba" class="svgShape stopColorfebbba-133"></stop><stop offset="1" stop-color="#ff928e" class="svgShape stopColorff928e-134"></stop></linearGradient><path fill="url(#y)" d="M791.118,1324.007
						c0,0-4.66-33.623-18.678-35.141c-14.02-1.519-27.542,10.118-13.443,28.883C776.535,1341.089,791.118,1324.007,791.118,1324.007
						z" class="svgShape colorgradient-135 selectable"></path></g></g></g><g><path fill="#7d97f4" d="M2876.828,3255H2097.84V2156.556c0-22.326,18.099-40.424,40.424-40.424h698.14
				c22.326,0,40.424,18.098,40.424,40.424V3255z" class="svgShape color7d97f4-137 selectable"></path><path fill="#91b3fa" d="M2647.18,3255h-778.989V2156.556c0-22.326,18.099-40.424,40.424-40.424h698.14
				c22.326,0,40.424,18.098,40.424,40.424V3255z" class="svgShape color91b3fa-138 selectable"></path><path fill="#bdd0fb" d="M1932.497 2439.999c-2.811 0-5.092-2.279-5.092-5.092v-134.969c0-71.104 57.846-128.951 128.951-128.951h204.83c2.811 0 5.092 2.279 5.092 5.092 0 2.813-2.281 5.092-5.092 5.092h-204.83c-65.49 0-118.768 53.279-118.768 118.768v134.969C1937.588 2437.72 1935.308 2439.999 1932.497 2439.999zM1932.497 2583.108c-2.811 0-5.092-2.279-5.092-5.092v-54.988c0-2.813 2.281-5.092 5.092-5.092 2.811 0 5.092 2.279 5.092 5.092v54.988C1937.588 2580.829 1935.308 2583.108 1932.497 2583.108z" class="svgShape colorbdd0fb-139 selectable"></path></g><g><linearGradient id="z" x1="3621.518" x2="2841.657" y1="2296.061" y2="2997.936" gradientUnits="userSpaceOnUse"><stop offset="0" stop-color="#4f52ff" class="svgShape stopColor4f52ff-142"></stop><stop offset="1" stop-color="#4042e2" class="svgShape stopColor4042e2-143"></stop></linearGradient><path fill="url(#z)" d="M3247.496,3255h-778.988v-525.545
				c0-22.326,18.099-40.424,40.424-40.424h698.14c22.326,0,40.424,18.099,40.424,40.424V3255z" class="svgShape colorgradient-144 selectable"></path><linearGradient id="A" x1="2994.863" x2="1822.272" y1="2426.472" y2="4217.219" gradientUnits="userSpaceOnUse"><stop offset="0" stop-color="#4f52ff" class="svgShape stopColor4f52ff-146"></stop><stop offset="1" stop-color="#4042e2" class="svgShape stopColor4042e2-147"></stop></linearGradient><path fill="url(#A)" d="M3017.848,3255H2238.86v-525.545
				c0-22.326,18.099-40.424,40.424-40.424h698.14c22.326,0,40.424,18.099,40.424,40.424V3255z" class="svgShape colorgradient-148 selectable"></path><path fill="#7d97f4" d="M2294.239 3003.575c-2.811 0-5.092-2.279-5.092-5.092v-134.969c0-71.104 57.846-128.951 128.951-128.951h204.827c2.811 0 5.092 2.279 5.092 5.092s-2.281 5.092-5.092 5.092h-204.827c-65.49 0-118.767 53.279-118.767 118.768v134.969C2299.331 3001.296 2297.05 3003.575 2294.239 3003.575zM2294.239 3146.686c-2.811 0-5.092-2.279-5.092-5.092v-54.988c0-2.813 2.281-5.092 5.092-5.092s5.092 2.279 5.092 5.092v54.988C2299.331 3144.406 2297.05 3146.686 2294.239 3146.686z" class="svgShape color7d97f4-149 selectable"></path></g><g><linearGradient id="B" x1="1487.266" x2="1750.49" y1="2510.217" y2="2873.415" gradientTransform="rotate(-26.747 1565.28 -316.618)" gradientUnits="userSpaceOnUse"><stop offset="0" stop-color="#09005d" class="svgShape stopColor09005d-152"></stop><stop offset="1" stop-color="#1a0f91" class="svgShape stopColor1a0f91-153"></stop></linearGradient><path fill="url(#B)" d="M2880.088,2211.518
				c0,0,0.032,9.785,31.633,9.174c17.621-0.341,50.296-4.187,68.757,23.379c9.531,14.232,26.891,20.729,43.179,15.425
				c40.567-13.209,108.456-22.904,150.695,37.797c32.24,46.332,16.337,78.078-7.061,98.084
				c-17.185,14.695-20.604,40.337-6.658,58.135c13.375,17.072,18.766,41.882-5.382,75.823
				c-54.115,76.056-193.791-17.893-193.791-17.893l-130.425-221.228L2880.088,2211.518z" class="svgShape colorgradient-154 selectable"></path><path fill="#ffffff" d="M3141.987,2371.148c-0.411,0-0.829-0.098-1.243-0.315c-0.209-0.109-0.289-0.366-0.179-0.573
				c0.106-0.205,0.365-0.287,0.57-0.179c1.717,0.897,3.597-1.296,4.432-2.735c11.417-19.644,8.954-47.082-5.99-66.725
				c-8.947-11.761-21.017-19.709-33.981-22.379c-9.209-1.899-18.683-1.14-27.597-0.194c-15.113,1.601-30.312,3.963-45.173,7.021
				c-1.213,0.249-2.427,0.504-3.643,0.759c-8.741,1.835-17.781,3.731-26.854,3.756c-0.056,0-0.116,0-0.172,0
				c-11.632,0-21.822-3.381-28.707-9.53c-4.296-3.832-7.479-8.811-10.558-13.626c-3.696-5.78-7.515-11.756-13.22-15.565
				c-0.196-0.131-0.249-0.395-0.116-0.588c0.129-0.197,0.394-0.244,0.587-0.118c5.851,3.908,9.723,9.961,13.465,15.814
				c3.046,4.767,6.199,9.696,10.406,13.45c6.733,6.01,16.72,9.315,28.144,9.315c0.056,0,0.113,0,0.172,0
				c8.983-0.025,17.98-1.913,26.682-3.738c1.213-0.255,2.43-0.51,3.643-0.761c14.891-3.063,30.116-5.43,45.259-7.034
				c8.97-0.948,18.521-1.716,27.855,0.207c13.164,2.712,25.412,10.774,34.485,22.698c15.146,19.908,17.632,47.732,6.05,67.666
				C3145.312,2369.474,3143.698,2371.148,3141.987,2371.148z" class="svgShape colorffffff-155 selectable"></path><path fill="#ffffff" d="M3142.146,2361.664c-0.026,0-0.053-0.002-0.08-0.007c-0.229-0.045-0.381-0.267-0.338-0.496
				c2.453-12.998,1.452-25.101-2.887-35.001c-5.059-11.538-15.017-20.015-25.986-22.125c-0.232-0.043-0.381-0.267-0.338-0.496
				c0.046-0.232,0.272-0.391,0.497-0.336c11.241,2.161,21.434,10.828,26.602,22.616c4.409,10.058,5.43,22.333,2.947,35.498
				C3142.524,2361.521,3142.345,2361.664,3142.146,2361.664z" class="svgShape colorffffff-156 selectable"></path><linearGradient id="C" x1="17585.201" x2="17312.06" y1="2652.403" y2="2808.307" gradientTransform="matrix(-1 0 0 1 20066.106 0)" gradientUnits="userSpaceOnUse"><stop offset="0" stop-color="#febbba" class="svgShape stopColorfebbba-158"></stop><stop offset="1" stop-color="#ff928e" class="svgShape stopColorff928e-159"></stop></linearGradient><path fill="url(#C)" d="M2522.431,2906.564
				c0.322-0.124,173.573-303.527,196.984-332.079c3.939-4.802,10.034-7.248,16.202-6.513l48.357,5.762l56.809,122.9l-94.643-55.119
				c9.365,64.769-112.216,161.023-153.914,196.145c-4.232,3.564-4.579,9.948-0.758,13.949l16.647,17.426
				c-27.33,27.702-58.866,45.49-94.459,53.717L2522.431,2906.564z" class="svgShape colorgradient-160 selectable"></path><linearGradient id="D" x1="-7692.972" x2="-7713.94" y1="-3061.066" y2="-2739.555" gradientTransform="rotate(-26.182 10032.865 -22079.452)" gradientUnits="userSpaceOnUse"><stop offset="0" stop-color="#09005d" class="svgShape stopColor09005d-162"></stop><stop offset="1" stop-color="#1a0f91" class="svgShape stopColor1a0f91-163"></stop></linearGradient><path fill="url(#D)" d="M2598.487,2859.631
				c0,0,10.624,3.432,14.221,12.895c1.721,4.527-0.135,9.655-4.072,12.476c-17.494,12.533-75.2,52.998-101.83,60.924
				c-2.183,0.649-4.26-1.325-3.768-3.549c1.366-6.186,5.787-18.54,20.027-36.625l-1.277,2.584c-1.617,3.271,1.945,6.676,5.122,4.882
				C2544.722,2903.163,2581,2881.156,2598.487,2859.631z" class="svgShape colorgradient-164 selectable"></path><linearGradient id="E" x1="17558.777" x2="18493.332" y1="2691.284" y2="2106.238" gradientTransform="matrix(-1 0 0 1 20066.106 0)" gradientUnits="userSpaceOnUse"><stop offset="0" stop-color="#febbba" class="svgShape stopColorfebbba-166"></stop><stop offset="1" stop-color="#ff928e" class="svgShape stopColorff928e-167"></stop></linearGradient><path fill="url(#E)" d="M2589.913,2981.03
				c0.29-0.187,26.284-62.813,26.574-62.999c23.833-145.104,81.98-269.375,99.128-302.074c2.885-5.5,8.359-9.128,14.549-9.657
				l48.522-4.143l80.506,108.859l-103.839-34.824c22.278,61.533-77.307,180.401-111.034,223.234
				c-3.423,4.347-2.471,10.669,2.082,13.814l19.829,13.697c-21.157,32.66-48.442,56.462-81.634,71.722L2589.913,2981.03z" class="svgShape colorgradient-168 selectable"></path><linearGradient id="F" x1="-6306.052" x2="-6327.019" y1="-5288.351" y2="-4966.861" gradientTransform="rotate(-37.859 10046.937 -14133.692)" gradientUnits="userSpaceOnUse"><stop offset="0" stop-color="#09005d" class="svgShape stopColor09005d-170"></stop><stop offset="1" stop-color="#1a0f91" class="svgShape stopColor1a0f91-171"></stop></linearGradient><path fill="url(#F)" d="M2654.898,2919.675
				c0,0,11.099,1.211,16.536,9.75c2.602,4.085,1.823,9.483-1.462,13.042c-14.596,15.814-62.918,67.121-87.393,80.271
				c-2.007,1.078-4.44-0.436-4.409-2.713c0.086-6.335,1.915-19.327,12.201-39.92l-0.728,2.789c-0.921,3.53,3.255,6.144,6.004,3.745
				C2611.054,2973.187,2642.129,2944.294,2654.898,2919.675z" class="svgShape colorgradient-172 selectable"></path><linearGradient id="G" x1="9436.077" x2="9099.646" y1="2482.2" y2="3090.366" gradientTransform="matrix(-1 0 0 1 12234.405 0)" gradientUnits="userSpaceOnUse"><stop offset="0" stop-color="#09005d" class="svgShape stopColor09005d-174"></stop><stop offset="1" stop-color="#1a0f91" class="svgShape stopColor1a0f91-175"></stop></linearGradient><path fill="url(#G)" d="M3005.816,2579.23
					c0,0,43.895,65.289,47.497,95.07c3.602,29.782-12.138,40.081-58.081,43.879c-136.719,11.302-204.117-29.673-204.117-29.673
					c-9.353-59.632-16.008-74.802-94.118-107.226c0,0,98.796,7.844,118.68,0.127
					C2835.559,2573.692,3005.816,2579.23,3005.816,2579.23z" class="svgShape colorgradient-176 selectable"></path><linearGradient id="H" x1="17273.109" x2="16629.211" y1="2354.674" y2="2975.78" gradientTransform="matrix(-1 0 0 1 20066.106 0)" gradientUnits="userSpaceOnUse"><stop offset="0" stop-color="#dadada" class="svgShape stopColorff928e-178"></stop><stop offset="1" stop-color="#d2cfcf" class="svgShape stopColorfe7062-179"></stop></linearGradient><path fill="url(#H)" d="M2887.106,2570.587
					c0,0-51.116-48.673-76.278-80.911c-13.601-17.427-17.873-40.368-11.582-61.56c11.488-38.702,31.903-78.787,33.765-85.025
					c2.854-9.563,60.168-9.165,60.168-9.165s112.784,73.198,157.097,197.189l-49.766,15.493c0,0-29.448-49.404-58.544-80.814
					c0,0,50.347,66.51,52.12,93.737L2887.106,2570.587z" class="svgShape colorgradient-180 selectable"></path><linearGradient id="I" x1="-8796.002" x2="-8814.56" y1="2410.713" y2="2291.632" gradientTransform="translate(11669.643)" gradientUnits="userSpaceOnUse"><stop offset="0" stop-color="#febbba" class="svgShape stopColorfebbba-182"></stop><stop offset="1" stop-color="#ff928e" class="svgShape stopColorff928e-183"></stop></linearGradient><path fill="url(#I)" d="M2826.079,2289.647
					c0.599,1.988,15.558,51.58,16.728,52.609c1.17,1.029,32.807,2.731,47.698-7.446l-30.393-67.236L2826.079,2289.647z" class="svgShape colorgradient-184 selectable"></path><linearGradient id="J" x1="-8710.342" x2="-8438.253" y1="2562.537" y2="2562.537" gradientTransform="translate(11669.643)" gradientUnits="userSpaceOnUse"><stop offset="0" stop-color="#febbba" class="svgShape stopColorfebbba-186"></stop><stop offset="1" stop-color="#ff928e" class="svgShape stopColorff928e-187"></stop></linearGradient><path fill="url(#J)" d="M2789.713,2589.795l38.408-41.789
					l44.358,11.945c0,0,51.714,8.012,81.313,0c29.598-8.012,29.598-8.012,29.598-8.012l66.885-20.823l10.505,29.688
					c2.667,7.538-0.013,15.906-6.531,20.537c-5.787,4.112-12.569,8.631-16.893,10.522c-8.808,3.854-202.905,1.219-202.905,1.219
					L2789.713,2589.795z" class="svgShape colorgradient-188 selectable"></path><g><linearGradient id="K" x1="-8799.717" x2="-8942.055" y1="2182.34" y2="2221.351" gradientTransform="rotate(-2.807 4601.19 -235276.346)" gradientUnits="userSpaceOnUse"><stop offset="0" stop-color="#09005d" class="svgShape stopColor09005d-191"></stop><stop offset="1" stop-color="#1a0f91" class="svgShape stopColor1a0f91-192"></stop></linearGradient><path fill="url(#K)" d="M2916.851,2606.334
					c-0.135,0.007-0.27,0.01-0.406,0.009l-176.663-0.193c-4.367-0.004-7.904-3.548-7.899-7.915c0.004-4.369,3.561-7.978,7.917-7.899
					l176.663,0.193c4.367,0.004,7.904,3.548,7.899,7.915C2924.357,2602.675,2921.029,2606.127,2916.851,2606.334z" class="svgShape colorgradient-193 selectable"></path><linearGradient id="L" x1="-8915.466" x2="-9016.462" y1="2467.443" y2="2574.189" gradientTransform="translate(11669.643)" gradientUnits="userSpaceOnUse"><stop offset="0" stop-color="#09005d" class="svgShape stopColor09005d-195"></stop><stop offset="1" stop-color="#1a0f91" class="svgShape stopColor1a0f91-196"></stop></linearGradient><path fill="url(#L)" d="M2580.97,2445.935h147.126
					c10.854,0,20.732,6.263,25.362,16.08l68.017,144.225h-182.838c-6.995,0-13.279-4.273-15.85-10.778l-52.744-133.459
					C2566.995,2454.291,2572.678,2445.935,2580.97,2445.935z" class="svgShape colorgradient-197 selectable"></path><linearGradient id="M" x1="-8976.522" x2="-9022.348" y1="2494.022" y2="2563.029" gradientTransform="translate(11669.643)" gradientUnits="userSpaceOnUse"><stop offset="0" stop-color="#4f52ff" class="svgShape stopColor4f52ff-199"></stop><stop offset="1" stop-color="#4042e2" class="svgShape stopColor4042e2-200"></stop></linearGradient><path fill="url(#M)" d="M2684.622,2519.883
					c3.188,9.906,0.833,19.526-5.261,21.487c-6.094,1.962-13.618-4.479-16.807-14.384c-3.188-9.906-0.833-19.525,5.261-21.487
					C2673.909,2503.538,2681.433,2509.978,2684.622,2519.883z" class="svgShape colorgradient-201 selectable"></path></g><g><linearGradient id="N" x1="-2775.778" x2="-2635.408" y1="2253.286" y2="2003.475" gradientTransform="rotate(-37.954 190.943 -5870.473)" gradientUnits="userSpaceOnUse"><stop offset="0" stop-color="#febbba" class="svgShape stopColorfebbba-204"></stop><stop offset="1" stop-color="#ff928e" class="svgShape stopColorff928e-205"></stop></linearGradient><path fill="url(#N)" d="M2797.817,2222.327
					c0,0-13.427,24.068-4.477,63.614c8.951,39.546,29.534,44.975,43.733,36.851c14.199-8.125,33.076-23.297,38.699-57.738
					C2881.395,2230.612,2816.026,2192.008,2797.817,2222.327z" class="svgShape colorgradient-206 selectable"></path><linearGradient id="O" x1="1512.494" x2="1787.434" y1="2465.722" y2="2845.088" gradientTransform="rotate(-26.747 1565.28 -316.618)" gradientUnits="userSpaceOnUse"><stop offset="0" stop-color="#09005d" class="svgShape stopColor09005d-208"></stop><stop offset="1" stop-color="#1a0f91" class="svgShape stopColor1a0f91-209"></stop></linearGradient><path fill="url(#O)" d="M2850.149,2260.197
					c0,0-17.906-54.105-55.821-25.339l-4.016,13.058c0,0-32.07-12.728-18.209-41.555c13.862-28.827,47.526-40.201,80.888-17.257
					c33.362,22.946,50.899,42.046,46.261,69.089c-4.639,27.044-24.115,15.671-24.115,15.671s-1.912-20.42-11.145-24.942
					c-9.231-4.522-10.551,10.654-10.551,10.654L2850.149,2260.197z" class="svgShape colorgradient-210 selectable"></path><linearGradient id="P" x1="-2745.898" x2="-2605.531" y1="2270.075" y2="2020.269" gradientTransform="rotate(-37.954 190.943 -5870.473)" gradientUnits="userSpaceOnUse"><stop offset="0" stop-color="#febbba" class="svgShape stopColorfebbba-212"></stop><stop offset="1" stop-color="#ff928e" class="svgShape stopColorff928e-213"></stop></linearGradient><path fill="url(#P)" d="M2858.034,2261.629
					c0,0-9.368-27.758,7.592-27.021c16.959,0.737,7.427,26.597,3.091,35.946L2858.034,2261.629z" class="svgShape colorgradient-214 selectable"></path></g></g><g><path fill="#91b3fa" d="M2767.992 1865.94c5.452 8.068 27.122 190.735 30.513 258.2.229 4.562-3.42 8.367-7.988 8.367l0 0c-3.939 0-7.292-2.87-7.899-6.762l-39.635-253.994L2767.992 1865.94zM2593.769 1865.94c-5.452 8.068-27.121 190.735-30.514 258.2-.229 4.562 3.42 8.367 7.988 8.367l0 0c3.939 0 7.292-2.87 7.899-6.762l39.635-253.994L2593.769 1865.94z" class="svgShape color91b3fa-216 selectable"></path><path fill="#7d97f4" d="M2800.772 1851.684l.018 1.991c.131 14.331-12.215 26.085-27.674 26.348l-183.202 3.116c-15.236.259-27.937-10.751-28.676-24.859l-.095-1.823c-.771-14.714 11.724-27.11 27.613-27.394l183.28-3.285C2787.723 1825.497 2800.639 1837.141 2800.772 1851.684zM2444.368 2117.504c32.567 0 46.976-2.793 53.419-5.341-1.252 5.348-6.016 9.57-12.035 9.57H2370.54c-3.879 0-6.329-3.714-5.401-7.076C2378.272 2115.713 2406.165 2117.504 2444.368 2117.504z" class="svgShape color7d97f4-217 selectable"></path><linearGradient id="Q" x1="2365.139" x2="2498.116" y1="2100.866" y2="2100.866" gradientUnits="userSpaceOnUse"><stop offset="0" stop-color="#09005d" class="svgShape stopColor09005d-219"></stop><stop offset="1" stop-color="#1a0f91" class="svgShape stopColor1a0f91-220"></stop></linearGradient><path fill="url(#Q)" d="M2365.139,2114.657
						c0.187-0.677,0.461-1.345,0.943-1.961c8.777-11.204,26.406-28.801,50.387-28.463c35.132,0.495,47.38,4.305,74.681,0.214
						l6.44,21.348c0.656,2.176,0.668,4.35,0.196,6.369c-6.443,2.548-20.852,5.341-53.419,5.341
						C2406.165,2117.504,2378.272,2115.713,2365.139,2114.657z" class="svgShape colorgradient-221 selectable"></path><linearGradient id="R" x1="6281.983" x2="6317.927" y1="2076.916" y2="2076.916" gradientTransform="matrix(-1 0 0 1 8773.135 0)" gradientUnits="userSpaceOnUse"><stop offset="0" stop-color="#febbba" class="svgShape stopColorfebbba-223"></stop><stop offset="1" stop-color="#ff928e" class="svgShape stopColorff928e-224"></stop></linearGradient><path fill="url(#R)" d="M2483.245,2061.442l7.906,26.888
					c0,0-17.514,7.973-32.919,1.572l-3.025-23.295L2483.245,2061.442z" class="svgShape colorgradient-225 selectable"></path><path fill="#7d97f4" d="M2244.456,2100.572c25.387,20.398,38.361,27.256,44.971,29.315
						c-4.309,3.365-10.655,3.657-15.347-0.113l-89.812-72.163c-3.024-2.43-2.619-6.845,0.2-8.873
						C2194.048,2057.783,2214.676,2076.644,2244.456,2100.572z" class="svgShape color7d97f4-226 selectable"></path><linearGradient id="S" x1="2184.469" x2="2301.533" y1="2087.624" y2="2087.624" gradientUnits="userSpaceOnUse"><stop offset="0" stop-color="#09005d" class="svgShape stopColor09005d-228"></stop><stop offset="1" stop-color="#1a0f91" class="svgShape stopColor1a0f91-229"></stop></linearGradient><path fill="url(#S)" d="M2184.469,2048.738
						c0.568-0.409,1.199-0.755,1.958-0.93c13.826-3.196,38.538-5.807,57.023,9.476c27.078,22.389,34.25,33.018,58.083,46.943
						l-8.287,20.597c-0.845,2.099-2.19,3.793-3.818,5.063c-6.61-2.058-19.584-8.917-44.971-29.315
						C2214.676,2076.644,2194.048,2057.783,2184.469,2048.738z" class="svgShape colorgradient-230 selectable"></path><linearGradient id="T" x1="6083.234" x2="6367.767" y1="1914.729" y2="1914.729" gradientTransform="matrix(-1 0 0 1 8773.135 0)" gradientUnits="userSpaceOnUse"><stop offset="0" stop-color="#09005d" class="svgShape stopColor09005d-232"></stop><stop offset="1" stop-color="#1a0f91" class="svgShape stopColor1a0f91-233"></stop></linearGradient><path fill="url(#T)" d="M2652.364,1755.102
					c0,0-194.978,15.92-234.977,34.749c-39.998,18.829,32.641,282.73,32.641,282.73s10.889,5.241,35.119-2.292
					c0,0-24.846-194.748-6.357-236.978l211.111-34.53L2652.364,1755.102z" class="svgShape colorgradient-234 selectable"></path><linearGradient id="U" x1="6452.229" x2="6495.141" y1="2079.941" y2="2079.941" gradientTransform="matrix(-1 0 0 1 8773.135 0)" gradientUnits="userSpaceOnUse"><stop offset="0" stop-color="#febbba" class="svgShape stopColorfebbba-236"></stop><stop offset="1" stop-color="#ff928e" class="svgShape stopColorff928e-237"></stop></linearGradient><path fill="url(#U)" d="M2320.906,2067.157
					c-1.81,1.649-19.373,37.07-19.373,37.07s-19.552-4.23-23.539-16.604l17.593-31.969L2320.906,2067.157z" class="svgShape colorgradient-238 selectable"></path><linearGradient id="V" x1="6341.69" x2="6029.319" y1="1796.181" y2="2150.347" gradientTransform="matrix(-1 0 0 1 8773.135 0)" gradientUnits="userSpaceOnUse"><stop offset="0" stop-color="#09005d" class="svgShape stopColor09005d-240"></stop><stop offset="1" stop-color="#1a0f91" class="svgShape stopColor1a0f91-241"></stop></linearGradient><path fill="url(#V)" d="M2769.798,1753.472
					c0,0,6.354,15.289,6.094,35.606c-0.359,28.098-22.948,50.898-51.013,52.299l-230.496,10.511
					c-4.868,0.222-8.986,3.591-10.206,8.309c-5.416,20.951-31.891,85.287-161.307,213.666c-3.443,3.416-8.807,3.997-12.907,1.407
					l-18.422-11.637c-1.934-1.222-2.552-3.757-1.396-5.731l134.207-229.178c7.049-11.633,18.38-20.036,31.558-23.405l196.454-50.217
					L2769.798,1753.472z" class="svgShape colorgradient-242 selectable"></path><linearGradient id="W" x1="6213.87" x2="6235.026" y1="1475.25" y2="1421.9" gradientTransform="matrix(-1 0 0 1 8773.135 0)" gradientUnits="userSpaceOnUse"><stop offset="0" stop-color="#febbba" class="svgShape stopColorfebbba-244"></stop><stop offset="1" stop-color="#ff928e" class="svgShape stopColorff928e-245"></stop></linearGradient><path fill="url(#W)" d="M2542.646,1395.476
					c0,0,24.691,43.658,49.866,64.807l-52.035,29.033c0,0-11.726-46.217-38.513-59.752L2542.646,1395.476z" class="svgShape colorgradient-246 selectable"></path><linearGradient id="X" x1="2516.84" x2="2662.803" y1="1812.755" y2="1564.957" gradientUnits="userSpaceOnUse"><stop offset="0" stop-color="#868686" class="svgShape stopColorff928e-248"></stop><stop offset="1" stop-color="#cac9c9" class="svgShape stopColorfe7062-249"></stop></linearGradient><path fill="url(#X)" d="M2773.984,1755.102
					c0,0-62.226,15.165-121.62,0c0,0-83.11-111.724-115.263-142.132c0,0-51.287,80.931-165.444,92.401l-6.367-14.227
					c0,0,90.881-41.894,118.859-106.265c27.978-64.371,39.215-91.826,64.668-108.621c15.853-10.459,25.344-17.604,30.249-21.507
					c2.685-2.137,6.392-2.378,9.322-0.592C2615.402,1470.62,2742.505,1557.672,2773.984,1755.102z" class="svgShape colorgradient-250 selectable"></path><linearGradient id="Y" x1="6394.613" x2="6493.733" y1="1682.729" y2="1682.729" gradientTransform="matrix(-1 0 0 1 8773.135 0)" gradientUnits="userSpaceOnUse"><stop offset="0" stop-color="#febbba" class="svgShape stopColorfebbba-252"></stop><stop offset="1" stop-color="#ff928e" class="svgShape stopColorff928e-253"></stop></linearGradient><path fill="url(#Y)" d="M2378.521,1683.713l-12.85-3.425
					l-39.014-9.035c-4.696-1.087-9.633-0.255-13.713,2.312l-33.545,21.105l92.637-0.156L2378.521,1683.713z" class="svgShape colorgradient-254 selectable"></path><g><linearGradient id="Z" x1="8218.613" x2="8112.392" y1="2523.185" y2="2604.46" gradientTransform="scale(-1 1) rotate(-7.505 -5954.247 83622.77)" gradientUnits="userSpaceOnUse"><stop offset="0" stop-color="#febbba" class="svgShape stopColorfebbba-257"></stop><stop offset="1" stop-color="#ff928e" class="svgShape stopColorff928e-258"></stop></linearGradient><path fill="url(#Z)" d="M2503.441,1330.012
						c0,0-23.997,39.889-28.16,61.938c-4.163,22.047-10.848,35.829,14.244,43.685c25.092,7.856,48.412-2.087,63.047-22.667
						c0,0,22.855-31.672,20.575-46.175C2570.868,1352.288,2503.441,1330.012,2503.441,1330.012z" class="svgShape colorgradient-259 selectable"></path><linearGradient id="aa" x1="8143.988" x2="8240.175" y1="2459.026" y2="2582.866" gradientTransform="scale(-1 1) rotate(-7.505 -5954.247 83622.77)" gradientUnits="userSpaceOnUse"><stop offset="0" stop-color="#09005d" class="svgShape stopColor09005d-261"></stop><stop offset="1" stop-color="#1a0f91" class="svgShape stopColor1a0f91-262"></stop></linearGradient><path fill="url(#aa)" d="M2545.893,1395.904l-3.246-0.428
						c0,0,16.992-25.675,5.873-32.044c-11.118-6.369-56.425-21.998-64.294-39.842c-7.586-17.201,3.761-36.636,17.441-40.691
						c0.865-0.257,1.779,0.255,2.093,1.101l0.804,2.167c0.551,1.484,2.626,1.543,3.261,0.094l0,0c0.602-1.375,2.57-1.433,3.19-0.066
						c2.424,5.346,9.692,14.476,31.481,21.54c30.917,10.023,50.176,25.608,47.805,47.575c-0.15,1.392,1.232,2.351,2.512,1.785
						c2.527-1.117,6.359-1.293,10.808,3.573c7.737,8.462,1.676,26.971-19.455,40.07c-1.004,0.622-1.183,2.038-0.285,2.807
						c3.161,2.707,7.609,8.741-6.688,14.121c-14.625,5.503-22.605,3.641-25.555,2.459c-0.793-0.318-1.246-1.14-1.083-1.979
						l3.756-19.249c0.194-0.995-0.491-1.948-1.497-2.081L2545.893,1395.904z" class="svgShape colorgradient-263 selectable"></path><linearGradient id="ab" x1="8205.438" x2="8099.217" y1="2505.966" y2="2587.242" gradientTransform="scale(-1 1) rotate(-7.505 -5954.247 83622.77)" gradientUnits="userSpaceOnUse"><stop offset="0" stop-color="#febbba" class="svgShape stopColorfebbba-265"></stop><stop offset="1" stop-color="#ff928e" class="svgShape stopColorff928e-266"></stop></linearGradient><path fill="url(#ab)" d="M2544.56,1399.86
						c0,0,10.589-26.105,21.709-16.929c11.121,9.176-10.279,29.458-20.156,29.187L2544.56,1399.86z" class="svgShape colorgradient-267 selectable"></path></g><g><linearGradient id="ac" x1="4557.214" x2="4981.527" y1="-15356.419" y2="-15913.116" gradientTransform="matrix(1.388 -.0686 .0685 1.3855 13463.309 -570.617)" gradientUnits="userSpaceOnUse"><stop offset="0" stop-color="#09005d" class="svgShape stopColor09005d-270"></stop><stop offset="1" stop-color="#1a0f91" class="svgShape stopColor1a0f91-271"></stop></linearGradient><path fill="url(#ac)" d="M2414.311,1712.844
						c-0.152,0.007-0.303,0.011-0.455,0.011l-197.902-0.198c-4.893-0.004-8.854-3.967-8.848-8.85
						c0.005-4.885,3.99-8.921,8.869-8.834l197.902,0.198c4.892,0.003,8.853,3.966,8.848,8.85
						C2422.719,1708.752,2418.991,1712.612,2414.311,1712.844z" class="svgShape colorgradient-272 selectable"></path><g><linearGradient id="ad" x1="-1916.266" x2="-1491.954" y1="-5353.048" y2="-5909.746" gradientTransform="matrix(-.6475 -1.2297 1.2274 -.6463 -2.836 -5472.201)" gradientUnits="userSpaceOnUse"><stop offset="0" stop-color="#09005d" class="svgShape stopColor09005d-275"></stop><stop offset="1" stop-color="#1a0f91" class="svgShape stopColor1a0f91-276"></stop></linearGradient><path fill="url(#ad)" d="M2139.311,1519.035
						c0.071,0.134,0.138,0.27,0.201,0.408l83.269,179.532c2.06,4.438,0.137,9.7-4.293,11.754c-4.432,2.055-9.772,0.143-11.75-4.317
						l-83.269-179.532c-2.06-4.438-0.137-9.7,4.293-11.755C2132.056,1513.136,2137.128,1514.888,2139.311,1519.035z" class="svgShape colorgradient-277 selectable"></path></g></g><g><path fill="#7d97f4" d="M2326.191 1722.777c.865 3.581 83.441 313.281 104.377 391.796 2.413 9.049-4.325 17.933-13.586 17.933l0 0c-6.458 0-12.086-4.449-13.65-10.79l-91.665-371.653L2326.191 1722.777zM2280.973 1722.777c-.865 3.581-83.441 313.281-104.377 391.796-2.413 9.049 4.325 17.933 13.586 17.933l0 0c6.458 0 12.085-4.449 13.649-10.79l91.666-371.653L2280.973 1722.777z" class="svgShape color7d97f4-279 selectable"></path><path fill="#7d97f4" d="M2277.532,1712.65h51.429v41.301c0,5.936-4.755,10.748-10.62,10.748h-7.055v92.769
					c0,4.494-3.599,8.137-8.04,8.137l0,0c-4.44,0-8.04-3.643-8.04-8.137v-92.769h-3.58c-7.784,0-14.094-6.387-14.094-14.265V1712.65
					z" class="svgShape color7d97f4-280 selectable"></path><path fill="#7d97f4" d="M2455.415,1702.729H2168.25c-4.013,0-7.518,2.749-8.521,6.681l-4.01,15.722
					c-1.443,5.658,2.798,11.166,8.572,11.132l294.661-1.714c5.711-0.033,9.878-5.478,8.484-11.083l-3.488-14.007
					C2462.963,1705.502,2459.447,1702.729,2455.415,1702.729z" class="svgShape color7d97f4-281 selectable"></path></g></g></svg></g></svg>